<svg width="450" height="450" viewBox="0 0 450 450" fill="none" xmlns="http://www.w3.org/2000/svg">
<g opacity="0.83">
<path opacity="0.83" d="M290.6 198.2V197.5H291.3H290.6V198.2H289.9L290 125.2L304.4 125.3V198.1H304.3V198.2H290.6ZM303.1 197V196.9H303.2V126.7L291.4 126.6L291.3 196.9L303.1 197Z" fill="white"/>
<path opacity="0.83" d="M275.3 198.2V197.5H276H275.3V198.2H274.6L274.7 149.8L289.1 149.9V198.2H289V198.3L275.3 198.2ZM287.7 197L287.8 151.2L276 151.1L275.9 196.9L287.7 197Z" fill="white"/>
<path opacity="0.83" d="M258.1 198.2V197.5H258.8H258.1V198.2H257.4L257.5 127.5L271.9 127.6V198.2H271.8V198.3L258.1 198.2ZM270.6 197V196.9H270.7V128.9L258.9 128.8L258.8 196.9L270.6 197Z" fill="white"/>
<path opacity="0.83" d="M240.6 198.2V197.5H241.3H240.6V198.2H239.9L240 155.1L254.4 155.2V198.2H254.3V198.3L240.6 198.2ZM253.1 197L253.2 156.5L241.4 156.4L241.3 196.9L253.1 197Z" fill="white"/>
<path opacity="0.83" d="M225.3 198.2V197.5H226H225.3V198.2H224.6L224.7 169.4L239.1 169.5V198.2H239V198.3L225.3 198.2ZM237.7 196.9L237.8 170.8L226 170.7L225.9 196.8L237.7 196.9Z" fill="white"/>
<path opacity="0.83" d="M208.1 198.2V197.5H208.8H208.1V198.2H207.4L207.5 156.4L221.9 156.5V198.2H221.8V198.3L208.1 198.2ZM220.5 196.9L220.6 157.8L208.8 157.7L208.7 196.8L220.5 196.9Z" fill="white"/>
<path opacity="0.83" d="M191.6 198.2V197.5H192.3H191.6V198.2H190.9L191 177.4L205.4 177.5V198.2H205.3V198.3L191.6 198.2ZM204 196.9L204.1 178.8L192.3 178.7L192.2 196.8L204 196.9Z" fill="white"/>
<path opacity="0.83" d="M176.2 198.2V197.5H176.9H176.2V198.2H175.5L175.6 169.4L190 169.5V198.2V198.3L176.2 198.2ZM188.7 196.9L188.8 170.8L177 170.7L176.9 196.8L188.7 196.9Z" fill="white"/>
</g>
<path opacity="0.4" d="M307.3 31.7V54.2999H282.7V37.0999H249.5V38.9H280.9V56.0999H309V31.7H307.3ZM217.2 70.4C234.9 70.4 249.3 56 249.3 38.2999C249.3 20.5999 234.9 6.19995 217.2 6.19995C199.5 6.19995 185.1 20.5999 185.1 38.2999C185.1 56 199.5 70.4 217.2 70.4ZM238 59C234.5 62.5 230.1 65.0999 225.2 66.5C228 63.5999 230.2 59.4 231.7 54.4C234.6 55.2 237.2 56.2 239.4 57.5C238.9 58 238.5 58.5 238 59ZM241.1 55.2999C240.6 55 240.1 54.7 239.6 54.5C237.5 53.4 235 52.5 232.4 51.7999C233.3 48.0999 233.8 44 233.9 39.7H246.5C246.2 45.4 244.3 50.7999 241.1 55.2999ZM241 21.1C244.2 25.6 246.2 31 246.5 36.9H233.9C233.8 32.5 233.3 28.4 232.4 24.7C235 24 237.5 23.1 239.6 22C240.1 21.7 240.6 21.4 241 21.1ZM238 17.5C238.5 18 238.9 18.5 239.4 19C237.2 20.2 234.6 21.2 231.7 22C231 19.8 230.2 17.7 229.3 15.9C228.1 13.6 226.8 11.6 225.2 9.99995C230.1 11.4 234.5 14 238 17.5ZM218.5 8.99995C219.8 9.29995 221 9.89995 222.3 10.9C225 13.2 227.4 17.3 229 22.6C225.8 23.3 222.2 23.6999 218.5 23.7999V8.99995ZM218.5 26.6C222.5 26.5 226.2 26.0999 229.7 25.2999C230.5 28.7999 231.1 32.8 231.1 36.9H218.5V26.6ZM218.5 39.5999H231.1C231 43.6999 230.5 47.5999 229.7 51.0999C226.2 50.3999 222.5 49.8999 218.5 49.7999V39.5999ZM218.5 52.5C222.2 52.5999 225.8 53 229 53.7C228.4 55.7999 227.6 57.7 226.8 59.4C225.5 62.1 223.9 64.1999 222.2 65.5999C221 66.5999 219.7 67.2999 218.4 67.5999V52.5H218.5ZM196.4 59C195.9 58.5 195.5 58 195 57.5C195.4 57.2999 195.7 57.1 196.1 56.9C198 55.9 200.2 55.1 202.7 54.4C203.4 56.6 204.2 58.6999 205.1 60.5999C206.3 62.8999 207.6 64.9 209.2 66.5C204.3 65.0999 199.9 62.5 196.4 59ZM215.8 67.5C214.5 67.2 213.3 66.5999 212 65.5C209.3 63.2 206.9 59 205.3 53.7C208.5 53 212.1 52.5999 215.8 52.5V67.5ZM215.8 49.7999C211.8 49.8999 208.1 50.2999 204.6 51.0999C203.8 47.5999 203.2 43.6999 203.2 39.5999H215.8V49.7999ZM215.8 36.9H203.2C203.3 32.7 203.8 28.7999 204.7 25.2999C208.2 26 211.9 26.5 215.9 26.6V36.9H215.8ZM212.1 10.9C213.3 9.89995 214.6 9.19995 215.9 8.99995V23.9C212.2 23.8 208.7 23.4 205.4 22.7C206 20.7 206.7 18.8 207.6 17.1C208.9 14.4 210.4 12.3 212.1 10.9ZM196.4 17.5C199.9 14 204.3 11.4 209.2 9.99995C206.5 12.8 204.3 17 202.8 22C200.3 21.3 198.1 20.5 196.2 19.5C195.8 19.3 195.5 19.1 195.2 18.9C195.5 18.4 195.9 17.9 196.4 17.5ZM193.3 21.1C195.8 22.5 198.7 23.7 202 24.6C201.1 28.4 200.6 32.5 200.5 36.9H187.9C188.1 31 190.1 25.6 193.3 21.1ZM187.9 39.5999H200.5C200.6 43.8999 201.1 48.0999 202 51.7999C198.7 52.7 195.8 53.8999 193.3 55.2999C190.1 50.8999 188.1 45.5 187.9 39.5999Z" fill="#00A8E8"/>
<g opacity="0.5">
<path opacity="0.5" d="M121.1 30.8999L110.1 31.9999L112.9 35.0999L91.2001 53.6999L79.8001 48.2999L65.1001 58.9999V65.9999L80.8001 54.4999L92.3001 59.9999L116.3 38.7999L119.3 42.0999L121.1 30.8999Z" fill="#00A8E8"/>
<path opacity="0.5" d="M130.4 50.7L119.6 51.7999L122.3 54.7999L101 73.1999L89.8 67.8L64 90.1999V97.0999L90.8 73.9L102.1 79.3L125.7 58.5L128.6 61.7L130.4 50.7Z" fill="#FF781D"/>
</g>
<g opacity="0.5">
<path opacity="0.5" d="M362.5 41.2L351.5 42.2999L354.3 45.4L332.6 64.0999L321.2 58.7L306.5 69.3V76.4L322.2 64.9L333.7 70.3L357.7 49.2L360.7 52.4L362.5 41.2Z" fill="#ACE4F9"/>
<path opacity="0.5" d="M371.8 61L361 62.1L363.7 65.2L342.4 83.5L331.2 78.2L305.4 100.6V107.5L332.2 84.3L343.5 89.7L367.1 68.9L370 72.1L371.8 61Z" fill="#FF781D"/>
</g>
<path d="M61.0998 150C66.0998 150.1 80.8998 203.3 77.6998 233.4C71.8998 244.3 52.0998 236.6 46.8998 236.6C41.7998 236.6 29.5998 158.4 32.7998 155.8C35.9998 153.2 36.5998 147.5 39.1998 147.5C41.7998 147.5 57.2998 149.9 61.0998 150Z" fill="#D4D5D6"/>
<path d="M45.8996 121.2C46.2996 125 41.1996 139.4 38.7996 144.7C36.3996 150 48.1996 150.1 48.1996 150.1L57.7996 155.4C57.7996 155.4 59.8996 142.2 62.4996 138.6C64.9996 135.1 45.8996 121.2 45.8996 121.2Z" fill="#EFB8AB"/>
<path d="M62.7998 150.9C65.5998 155.6 71.9998 175.8 74.6998 194.7C76.2998 205.9 76.1998 227.1 76.3998 232C77.0998 248.2 72.6998 259.3 72.6998 259.3L79.3998 265.7C79.3998 265.7 76.4998 179.6 69.9998 162.7C68.7998 159.7 62.7998 150.9 62.7998 150.9Z" fill="#151823"/>
<path d="M26.4999 391.1C26.4999 391.1 44.4999 388.7 46.0999 394.2C47.5999 399.7 49.4999 403.7 59.4999 408.8C62.4999 410.3 63.6999 411.1 63.9999 412.4C64.3999 413.4 65.0999 415.9 63.7999 417.2C61.5999 419.4 48.5999 421.7 39.1999 415.6C37.1999 414.3 33.6999 414 31.8999 414.8C30.9999 415.2 26.9999 413.8 26.9999 413.8C26.9999 413.8 25.8999 410.3 26.0999 406.7C25.2999 401.8 25.8999 394.6 26.4999 391.1Z" fill="#151823"/>
<path d="M41.4998 380.9C41.4998 380.9 53.1998 377.2 54.1998 382.9C55.4998 391 64.0998 395.3 72.9998 399.1C76.0998 400.4 76.5998 401.4 76.8998 402.7C77.1998 403.7 77.3998 405.2 76.0998 406.5C73.8998 408.7 64.0998 409 55.7998 406.4C53.5998 405.7 52.7998 403.1 46.9998 404.6C45.9998 404.8 42.0998 403.6 42.0998 403.6C42.0998 403.6 40.9998 400.1 41.1998 396.6C40.2998 391.5 40.7998 384.4 41.4998 380.9Z" fill="#151823"/>
<path d="M32.9997 240.2C32.9997 240.2 26.3997 260.9 29.3997 273.9C33.0997 289.7 30.1997 330.4 28.6997 335.7C27.1997 341 21.4997 372.7 23.4997 403.9C23.4997 403.9 35.1997 407 46.8997 402.8C46.8997 389.8 48.3997 349.4 54.1997 341C56.2997 337.9 53.8997 322.3 53.8997 317.7C53.8997 313.1 67.9997 259.4 66.4997 247.2C64.8997 235 32.9997 240.2 32.9997 240.2Z" fill="#151823"/>
<path d="M75.0999 224.2C77.9999 232.8 70.6999 314.6 67.4999 333.5C65.3999 346.4 67.4999 389.4 67.4999 393.5C59.4999 395.2 46.0999 396.4 46.0999 396.4C46.0999 396.4 42.0999 351.3 50.2999 321C53.1999 310.2 46.0999 257.2 43.7999 248C41.4999 238.8 75.0999 224.2 75.0999 224.2Z" fill="#151823"/>
<path d="M67.0996 270.7C65.2996 279.6 60.5996 334.2 60.2996 336.1C59.3996 340.9 58.0996 342.3 56.5996 349.3C55.0996 356.2 54.5996 392.6 53.5996 402.6C47.4996 403.3 36.8996 404.6 37.1996 402.7C37.4996 400.8 44.3996 401.6 44.2996 399.7C44.1996 397.8 49.8996 350.3 50.0996 346.9C50.2996 343.5 54.8996 339.7 57.0996 328.4C68.0996 270 67.0996 270.7 67.0996 270.7Z" fill="#282A35"/>
<path d="M56.1997 103.6C64.4997 103.6 68.2997 106.7 69.9997 119C70.0997 119.8 69.1997 121.5 69.1997 122.3C69.1997 122.5 69.1997 122.6 69.1997 122.8C70.2997 125.9 72.1997 130.5 72.0997 131.3C71.9997 132 70.3997 132.7 68.9997 132.8C68.6997 134.7 68.6997 135.9 68.3997 137.3C67.6997 140.9 67.2997 141.8 66.1997 142C62.1997 142.7 57.3997 141.8 52.9997 140.9C46.9997 139.7 46.5997 130.9 45.6997 124.6C44.1997 114.1 45.6997 103.5 56.1997 103.6Z" fill="#EFB8AB"/>
<path d="M45.6997 119.9C44.2997 117.6 41.1997 117.9 40.4997 119.9C39.8997 122 41.3997 129.1 44.9997 129.5C48.7997 130 45.6997 119.9 45.6997 119.9Z" fill="#D8A798"/>
<path d="M72.7997 184C70.7997 173.5 62.7997 157.6 62.6997 155.7C62.5997 155.1 63.6997 153.5 63.4997 152.5C62.9997 150.2 61.4997 148.6 61.4997 148.6C60.8997 149.9 60.3997 149.9 59.7997 150.4C58.6997 151.1 50.6997 153.7 50.6997 153.7C52.5997 154.7 60.5997 156.8 60.5997 156.8C62.4997 161.3 70.5997 211.4 70.7997 213.3C75.0997 215.6 77.4997 214.6 77.4997 214.6C77.4997 214.6 72.9997 185.2 72.7997 184Z" fill="#4A75DD"/>
<path d="M39.2996 138.9C40.7996 141.4 59.0996 150.5 59.0996 150.5L56.6996 160.3L36.0996 144.8L39.2996 138.9Z" fill="white"/>
<path d="M68.3996 111.6C69.9996 110 68.4996 110.6 70.4996 108C71.2996 107 71.1996 104.5 71.1996 104.5L65.5996 105.3C65.5996 105.3 69.6996 104.8 70.6996 103.7C70.9996 103.4 60.5996 102.3 60.5996 102.3C60.5996 102.3 53.3996 99.3 44.8996 101.5C39.2996 103 38.3996 105.7 38.3996 105.7C38.3996 105.7 27.6996 112.6 35.6996 129.5C35.6996 129.5 39.4996 136.8 37.0996 139.2C39.8996 140.8 47.5996 137.5 47.5996 137.5C47.5996 137.5 47.8996 130.8 46.9996 128.7C44.9996 124.3 48.9996 122.3 50.1996 123.9C50.5996 124.5 50.2996 127.5 51.0996 127.9C51.7996 128.3 54.6996 131.4 54.4996 130.7C52.5996 123 57.4996 115.4 59.4996 113.8C61.4996 112.2 52.3996 109.1 49.9996 108.7C47.5996 108.3 53.9996 108.3 60.1996 112.4C61.4996 113.2 68.3996 111.6 68.3996 111.6Z" fill="#151823"/>
<path d="M50.5001 123C49.4001 122.3 46.1001 121.4 46.0001 124.3C45.9001 127.1 47.7001 133 50.1001 132.7C52.5001 132.4 50.5001 123 50.5001 123Z" fill="#EFB8AB"/>
<path d="M37.4001 142.9C34.1 149 27.8 155 25.9 158.8C24 162.7 25.1 179.3 28.3 195.9C31.5 212.6 28 221.2 27.2 232.2C26.6 240.7 24.1 261.3 23.9 267.3C23.8 269.2 75.3001 271.5 78.4001 265.8C80.5 261.9 79.4 238.7 78.7 229.5C78.4 225.1 78.5 211.8 76 201.1C73.1 188.9 63.8 173.2 60.7001 167.2C55.5 157.5 37.4001 142.9 37.4001 142.9Z" fill="#151823"/>
<path d="M36.9997 140.1L33.1997 148L44.6997 155.9L51.1997 155.5L49.9997 163.2C49.9997 163.2 65.0997 174.1 76.1997 200.6C72.8997 190.4 69.4997 175 58.5997 160.2C54.6997 154.7 36.9997 140.1 36.9997 140.1Z" fill="#282A35"/>
<path d="M59.8998 145.5L63.6998 151.7L65.1998 155.9C65.1998 155.9 62.1998 149.9 58.9998 149.5C58.6998 149.5 59.8998 145.5 59.8998 145.5Z" fill="#DCE7EF"/>
<path d="M54.3 231.6C56.7 236.3 59.1 236.9 61.6 238.9C64.1 240.9 64.1 240.9 64.1 240.9C64.1 240.9 60.4 252.8 57.4 253.5C54.4 254.2 52.9 247.4 50 244.7C46.9 242 54.3 231.6 54.3 231.6Z" fill="#CC9483"/>
<path d="M35.3998 155.6C25.6998 152.8 21.6998 167.8 21.1998 185C20.6998 202.2 18.6998 217.6 21.9998 219.7C25.2998 221.8 45.9998 252.4 47.4998 252.2C48.9998 252 60.5998 239.8 60.5998 239.8C60.5998 239.8 41.7998 210.7 40.9998 203.1C40.1998 195.4 35.3998 155.6 35.3998 155.6Z" fill="#151823"/>
<path d="M35.8996 155.6C38.0996 155.1 45.2996 158.5 46.5996 172.2C46.9996 176 42.4996 198.3 42.3996 202.6C42.2996 206.9 42.9996 208.5 43.6996 209.4C44.3996 210.2 59.4996 231 63.3996 236.6C60.3996 240.9 58.4996 242.3 58.4996 242.3C58.4996 242.3 38.9996 219.1 37.1996 216C35.3996 212.8 39.3996 210.2 40.1996 210.1C40.9996 210 32.0996 211.9 32.0996 211.9C32.0996 211.9 36.4996 206.3 36.6996 202.6C36.8996 198.9 44.3996 171.1 39.1996 161.7C36.2996 156.3 35.8996 155.6 35.8996 155.6Z" fill="#282A35"/>
<path d="M315.9 390.3C316 392 314.7 393.5 313 393.6C311.3 393.7 309.8 392.4 309.7 390.7L304.5 292.8C304.4 291.1 305.7 289.6 307.4 289.5C309.1 289.4 310.6 290.7 310.6 292.4L315.9 390.3Z" fill="#ABB5BA"/>
<path d="M152.1 392.1C152 393.8 153.3 395.3 155 395.4C156.7 395.5 158.2 394.2 158.3 392.5L163.5 294.6C163.6 292.9 162.3 291.4 160.6 291.4C158.9 291.3 157.4 292.6 157.3 294.3L152.1 392.1Z" fill="#B6C2D3"/>
<path d="M321.9 291.3L138.6 290.4L145.5 64H317.3L321.9 291.3Z" fill="#96A6BC"/>
<path d="M318.8 291.3L141.3 290.4L147.9 64H314.4L318.8 291.3Z" fill="white"/>
<path d="M320.3 63.2001C320.3 64.1001 319.4 64.9001 318.2 64.9001H144.7C143.6 64.9001 142.7 64.2001 142.7 63.2001L142.8 59.9001C142.8 59.0001 143.7 58.3 144.9 58.3H318.3C319.4 58.3 320.4 59.0001 320.4 59.9001V63.2001H320.3Z" fill="#00315A"/>
<path d="M326.2 295.8C326.2 296.8 325.2 297.7 324 297.7L129.3 296.8C128.1 296.8 127.1 295.9 127.2 294.9L127.3 291.2C127.3 290.2 128.3 289.3 129.5 289.3L324.1 290.2C325.3 290.2 326.3 291 326.3 292.1V295.8H326.2Z" fill="#00315A"/>
<path d="M232.7 87.6001C213.6 87.6001 198 103.1 197.8 122.2C197.6 141.4 213 157.1 232.2 157.2C251.4 157.2 267.1 141.6 267.2 122.3C267.2 103.2 251.8 87.6001 232.7 87.6001ZM232.3 137.2C224.1 137.2 217.5 130.5 217.6 122.3C217.7 114.1 224.4 107.4 232.6 107.4C240.8 107.4 247.4 114.1 247.3 122.3C247.2 130.6 240.5 137.3 232.3 137.2Z" fill="#E4EEF4"/>
<path opacity="0.7" d="M232.8 94C217.3 94 204.5 106.6 204.4 122.2C204.2 137.9 216.8 150.6 232.4 150.7C248.1 150.7 260.8 138 260.9 122.3C260.9 106.7 248.4 94 232.8 94ZM232.5 139.5C223 139.5 215.4 131.8 215.5 122.3C215.6 112.8 223.3 105.2 232.7 105.2C242.1 105.2 249.7 112.9 249.7 122.4C249.7 131.8 241.9 139.5 232.5 139.5Z" fill="#6597EF"/>
<path d="M260.6 123.1H249.7C249.6 132.4 242.1 139.9 232.9 139.9C232.3 139.9 231.8 139.9 231.2 139.8L231.1 150.7C231.7 150.7 232.2 150.8 232.8 150.8C248.1 150.8 260.6 138.4 260.6 123.1Z" fill="#ED9621"/>
<path d="M204.1 122.4C203.9 137.8 216 150.3 231.2 150.8L231.3 139.6C222.2 139.1 215.1 131.6 215.2 122.4C215.2 117.1 217.7 112.4 221.4 109.2C219.1 106.1 216.8 102.9 214.7 100.4C208.3 105.6 204.2 113.5 204.1 122.4Z" fill="#6597EF"/>
<path opacity="0.7" d="M279.5 88.4C279.5 89.6 278.6 90.5 277.4 90.5C276.2 90.5 275.3 89.5 275.3 88.4C275.3 87.2 276.3 86.3 277.4 86.3C278.6 86.3 279.5 87.3 279.5 88.4Z" fill="#6597EF"/>
<path d="M280.252 127.328C280.254 126.168 279.316 125.226 278.156 125.224C276.996 125.222 276.054 126.161 276.052 127.321C276.05 128.48 276.989 129.422 278.148 129.424C279.308 129.426 280.25 128.488 280.252 127.328Z" fill="#E64A00"/>
<path d="M188 91.6C188 92.8 187 93.7 185.9 93.7C184.7 93.7 183.8 92.7 183.8 91.6C183.8 90.4 184.8 89.5 185.9 89.5C187.1 89.5 188 90.4 188 91.6Z" fill="#6597EF"/>
<path d="M274.5 90.5001C274.6 90.6001 274.3 91.1001 273.8 91.5001L253.1 108.2C252.6 108.6 252.1 108.8 252 108.7C251.9 108.6 252.2 108.1 252.7 107.7L273.4 91.0001C273.9 90.6001 274.4 90.4001 274.5 90.5001Z" fill="#72859B"/>
<path d="M189.7 93.5001C189.6 93.6001 189.9 94.1001 190.4 94.5001L210.7 111.3C211.2 111.7 211.7 111.9 211.8 111.8C211.9 111.7 211.6 111.2 211.1 110.8L190.9 94.0001C190.4 93.6001 189.9 93.4001 189.7 93.5001Z" fill="#72859B"/>
<path d="M275.1 127.7C275.1 127.9 274.8 128 274.4 128.1L258.9 128.6C258.5 128.6 258.2 128.5 258.2 128.3C258.2 128.1 258.5 128 258.9 127.9L274.4 127.4C274.8 127.4 275.1 127.5 275.1 127.7Z" fill="#72859B"/>
<path d="M305.3 89.9H282.2V87.2H305.3V89.9Z" fill="#B6C2D3"/>
<path d="M305.3 92.2H282.2V93.2H305.3V92.2Z" fill="#B6C2D3"/>
<path d="M305.3 95.3H282.2V94.3H305.3V95.3Z" fill="#B6C2D3"/>
<path d="M305.3 97.3999H282.2V96.3999H305.3V97.3999Z" fill="#B6C2D3"/>
<path d="M305.3 99.5H282.2V98.5H305.3V99.5Z" fill="#B6C2D3"/>
<path d="M282.9 125.826L282.896 128.526L306.096 128.562L306.1 125.862L282.9 125.826Z" fill="#B6C2D3"/>
<path d="M306.1 131.9H282.9V130.8L306.1 130.9V131.9Z" fill="#B6C2D3"/>
<path d="M306.1 134H282.9V133H306.1V134Z" fill="#B6C2D3"/>
<path d="M306 136.1H282.9V135.1H306V136.1Z" fill="#B6C2D3"/>
<path d="M306 138.2H282.9V137.2H306V138.2Z" fill="#B6C2D3"/>
<path d="M181 92.3H158.1V89.7H181.1L181 92.3Z" fill="#B6C2D3"/>
<path d="M181 95.6999L158 95.5999V94.5999L181 94.6999V95.6999Z" fill="#B6C2D3"/>
<path d="M181 97.8L158 97.7V96.7L181 96.8V97.8Z" fill="#B6C2D3"/>
<path d="M180.9 99.9L157.9 99.8L158 98.8L180.9 98.9V99.9Z" fill="#B6C2D3"/>
<path d="M180.9 102L157.9 101.9V100.9L180.9 101V102Z" fill="#B6C2D3"/>
<path d="M303 252.9H275.6L275.7 250.6L303 250.7V252.9Z" fill="#B6C2D3"/>
<path d="M302.9 255.7H275.6V254.8L303 254.9L302.9 255.7Z" fill="#B6C2D3"/>
<path d="M302.9 257.5H275.6V256.6L302.9 256.7V257.5Z" fill="#B6C2D3"/>
<path d="M302.9 259.3L275.5 259.2V258.4H302.9V259.3Z" fill="#B6C2D3"/>
<path d="M302.9 261.1L275.5 261V260.1L302.9 260.2V261.1Z" fill="#B6C2D3"/>
<path d="M267.1 252.8H236.3L236.4 250.5L267.1 250.6V252.8Z" fill="#B6C2D3"/>
<path d="M267 255.7L236.3 255.6V254.7L267 254.8V255.7Z" fill="#B6C2D3"/>
<path d="M267 257.4H236.2L236.3 256.5L267 256.6V257.4Z" fill="#B6C2D3"/>
<path d="M267 259.2L236.2 259.1V258.3L267 258.4V259.2Z" fill="#B6C2D3"/>
<path d="M266.9 261L236.2 260.9V260L266.9 260.1V261Z" fill="#B6C2D3"/>
<path d="M242.6 246.1H236.5L237 222.6L243 222.7L242.6 246.1Z" fill="#6597EF"/>
<path d="M250.5 246.1H244.4L244.8 230.1H250.8L250.5 246.1Z" fill="#6597EF"/>
<path opacity="0.7" d="M259.4 246.1H253.3L253.7 225.8L259.8 225.9L259.4 246.1Z" fill="#6597EF"/>
<path opacity="0.7" d="M268.1 246.1H262L262.3 233H268.4L268.1 246.1Z" fill="#6597EF"/>
<path opacity="0.7" d="M276.9 246.2L270.8 246.1L271.1 229.4H277.1L276.9 246.2Z" fill="#6597EF"/>
<path d="M285.6 246.2H279.5L279.8 227.1L285.9 227.2L285.6 246.2Z" fill="#F7B772"/>
<path d="M294.3 246.2H288.2L288.6 222.9H294.7L294.3 246.2Z" fill="#F4A545"/>
<path d="M303.1 246.2H297L297.3 220.2H303.4L303.1 246.2Z" fill="#ED9621"/>
<path opacity="0.7" d="M271.6 169.2C271.7 169.8 271.3 170.3 270.8 170.4C270.2 170.5 269.7 170.1 269.6 169.5C269.5 168.9 269.9 168.4 270.4 168.3C270.9 168.2 271.5 168.6 271.6 169.2Z" fill="#6597EF"/>
<path d="M269.4 170.7C269.5 170.8 269.3 171 269.1 171.3L260.5 181.5C260.3 181.7 260.1 181.9 260 181.8C259.9 181.7 260.1 181.5 260.3 181.2L268.9 171C269.1 170.8 269.3 170.6 269.4 170.7Z" fill="#72859B"/>
<path d="M219.1 165.6C218.8 166.1 219 166.8 219.5 167C220 167.3 220.6 167.1 220.9 166.6C221.2 166.1 221 165.4 220.5 165.2C220 164.9 219.4 165.1 219.1 165.6Z" fill="#FF781D"/>
<path d="M220.8 167.7C220.7 167.7 220.7 168 220.9 168.3L226.1 180.6C226.2 180.9 226.4 181.1 226.5 181.1C226.6 181.1 226.6 180.8 226.4 180.5L221.2 168.2C221.1 167.9 220.9 167.7 220.8 167.7Z" fill="#72859B"/>
<path d="M266.9 196.2C266.9 196 267 195.6 266.9 195.4V185.5L254.7 186.7L234.9 188L234.7 201.9C252.6 201.8 266.5 198.9 266.9 196.2Z" fill="#00315A"/>
<path d="M200.3 185.3L200.2 195.6V195.7V195.8V196C201.1 199.2 215.6 201.7 233.5 201.8C233.9 201.8 234.2 201.8 234.6 201.8L234.7 188.5L211.3 187.2L200.3 185.3Z" fill="#66BCF7"/>
<path d="M200.3 185.1C200.3 187.1 215.1 188.7 233.3 188.8C251.6 188.9 266.4 187.3 266.4 185.3C266.4 183.3 251.6 181.6 233.3 181.6C215.1 181.6 200.3 183.1 200.3 185.1ZM213.3 185.2C213.3 184 222.3 183 233.4 183.1C244.5 183.1 253.5 184.1 253.4 185.3C253.4 186.5 244.4 187.5 233.3 187.4C222.3 187.4 213.3 186.4 213.3 185.2Z" fill="#ED9621"/>
<path d="M200.5 185.2H213.2C213.2 186.4 221.9 187.4 232.7 187.4C233.4 187.4 234 187.4 234.6 187.4V188.8C233.9 188.8 233.3 188.8 232.6 188.8C214.9 188.8 200.5 187.2 200.5 185.2Z" fill="#8ACDFF"/>
<path d="M266.8 185.4C266.8 187.4 252.5 188.9 234.7 188.9V187.5C245.3 187.5 253.3 186.5 253.3 185.3C253.3 184.6 250.9 184.1 246.5 183.6C249.2 183.2 252 182.8 254.5 182.5C262 183.2 266.8 184.2 266.8 185.4Z" fill="#054E7F"/>
<path d="M224.3 187.2L222.7 188.7L234.8 188.8L234.7 187.4L224.3 187.2Z" fill="white"/>
<path opacity="0.55" d="M222.7 188.7L222.6 201.5C222.6 201.5 234.5 202 234.7 201.9C234.7 197.3 234.8 188.8 234.8 188.8L222.7 188.7Z" fill="#E6EDF4"/>
<path d="M189.9 180.2C190.1 180.8 190.7 181.1 191.2 180.9C191.8 180.7 192.1 180.1 191.9 179.6C191.7 179 191.1 178.7 190.6 178.9C190.1 179.1 189.8 179.7 189.9 180.2Z" fill="#8ACDFF"/>
<path d="M192.6 180.5C192.6 180.6 192.8 180.7 193.1 180.9L205.4 185.8C205.7 185.9 206 186 206 185.9C206 185.8 205.8 185.7 205.5 185.5L193.2 180.6C192.9 180.4 192.6 180.4 192.6 180.5Z" fill="#72859B"/>
<path d="M223.5 219.6C223.1 219.6 222.8 219.4 222.5 219.1C222.1 218.6 222.2 217.8 222.7 217.4C223.2 217 224 217.1 224.4 217.7C224.8 218.2 224.7 219 224.2 219.4C224 219.5 223.8 219.6 223.5 219.6ZM223.5 217.5C223.3 217.5 223.1 217.6 223 217.7C222.6 218 222.5 218.6 222.8 219C223.1 219.4 223.7 219.5 224.1 219.2C224.5 218.9 224.6 218.3 224.3 217.9C224.1 217.6 223.8 217.5 223.5 217.5Z" fill="#A0AAAF"/>
<path d="M224 216.7C223.9 216.7 223.9 216.4 224 216.1L226.9 200.8C227 200.5 227.1 200.2 227.2 200.3C227.3 200.3 227.3 200.6 227.2 200.9L224.3 216.2C224.2 216.4 224.1 216.7 224 216.7Z" fill="#72859B"/>
<path d="M124.7 404.5C123.2 407.2 119.4 415.1 121.1 417.7C122.8 420.3 123.7 420.4 126.8 420.6C129.9 420.8 131.5 419.6 133.5 418.9C135.5 418.1 141.5 418.6 143.4 417.3C145.3 416 149.5 410.8 147.5 409.3C146.3 408.4 143.1 408.3 134.4 407.8L124.7 404.5Z" fill="#151823"/>
<path d="M126.2 350.4C126.2 350.4 118.2 400.4 118.8 412.1C134.5 413.4 142.1 407.4 141.9 404C141.7 400.5 150.6 353.8 150.9 351.2C151.2 348.6 155.4 331.7 148.3 328.2C124.9 316.2 126.2 350.4 126.2 350.4Z" fill="#151823"/>
<path d="M144.5 406.1C142.6 410.4 139.4 417.7 140.5 420.6C141.6 423.6 146.3 423.1 150.3 421.7C151.2 421.4 153.8 419.9 156.4 420.8C159.8 421.8 166.6 419.8 168.3 419.4C175.1 417.8 173.1 412.3 168.8 412.1C162.5 411.9 158.5 408 156.6 406C154.6 404.1 144.5 406.1 144.5 406.1Z" fill="#151823"/>
<path d="M159.8 329C188.7 322.5 181.8 341.1 174.9 358.6C171.4 367.5 163.7 404.3 165.5 410.3C153.5 415 139.6 413.7 139.6 413.7C139.6 413.7 146.6 369 150.9 359.9C152.8 355.5 159.8 329 159.8 329Z" fill="#151823"/>
<path d="M103.2 224.2C103.5 227.4 101.3 238.2 99.1999 242.6C97.1999 247 90.3999 252.1 90.3999 252.1L115.1 262.1C115.1 262.1 116.3 244.3 121.8 241.9C125.2 240.4 103.2 224.2 103.2 224.2Z" fill="#CC9483"/>
<path d="M129.2 219.3C129.3 220.8 128.8 223.7 128.8 225.3C128.8 226.5 129.8 227.8 129.8 229C129.7 237.3 127.8 243.4 124.9 243.8C123.1 244 118.3 246.1 115.3 245C110.1 243.2 105.1 236.9 103.1 231.3C100 222.5 103.3 212.7 112.2 211C122 209 128.3 210 129.2 219.3Z" fill="#EFB8AB"/>
<path d="M67.5002 426.7H64.7002L71.0002 354.4L72.3002 345.6L118.5 351.1L115.6 435.2L112 434.9L110.3 360.4L77.8002 356.7L67.5002 426.7Z" fill="#00A9EA"/>
<path d="M167.8 337.7L131.9 333.8L71.5 341.6L71.3 352.9C70.9 354 70.7 357 74.4 357.5C74.4 357.5 112.1 362.4 116.7 361L168.3 354.1L167.8 337.7Z" fill="#00A9EA"/>
<path d="M121 347.2C114.4 348.7 112 348.2 106.4 347.6L77.6002 345.2C67.7002 343.5 70.6002 342.2 76.2002 340L80.9002 336.5C85.6002 334.7 124 330.3 130.2 330.9L164.4 334.5C171 335.2 168.9 341 168 341.2L121 347.2Z" fill="#048BB5"/>
<path d="M164.6 351.7L172 427.9L169.8 427.6L157.5 349.5L164.6 351.7Z" fill="#00A9EA"/>
<path d="M97.8001 242.7C108.6 241.5 113.6 243.8 119.6 246.3C120.8 247.8 121.2 253.1 121.2 253.1C121.2 253.1 98.1001 245.9 97.5001 245C96.7001 244 97.8001 242.7 97.8001 242.7Z" fill="white"/>
<path d="M131.6 210.1C131.8 211.8 131.1 212.1 130.6 212.1C131.9 210.3 130.9 206.8 130.9 206.8C126.6 211.7 113.9 198.7 101.5 207.6C100.2 208.5 101.8 209 100.8 209.8C92.3001 216.2 92.0001 220.3 94.1001 226.4C96.5001 233.2 97.5001 235.9 96.8001 239.3C96.2001 242.1 114.3 242 114.3 242C114.3 242 118.1 240.3 119.2 237.6C120 235.7 122.2 232.3 121.9 231.7C119.2 225.5 123.1 223.8 124.4 226.5C125.4 228.6 125 229.9 125 229.9L127.1 228.8C127.1 228.8 125.6 222.1 127.1 219.2C127.5 218.5 128.8 216.6 130.2 214.6C132.9 213.9 131.4 207.7 131.6 210.1Z" fill="#151823"/>
<path d="M137.1 269.1C135.7 266.5 135.2 258 135.2 258C135.2 258 136.8 259.6 121.5 252.2C116.3 249.7 111.8 247.7 111.8 247.7L97.0001 244.3C90.6001 249.5 83.2001 252.7 79.5001 256.7C79.5001 256.7 74.8001 261.6 74.3001 263C66.6001 281.6 82.8001 286.9 81.9001 294.2C78.5001 324.1 87.6001 334.6 88.6001 338.4C89.1001 340.3 98.3001 342.1 109.1 342.3C114.9 344.1 143.1 335.5 145 333.9C146 331.4 140 340.2 135.8 315.6C135.3 312.6 134.4 305.8 135.9 299.2C137.6 280.3 144 279.5 137.1 269.1Z" fill="#151823"/>
<path d="M96.3 243.7L92 247.8C92 247.8 97.6 247.4 101.5 248.4C109.9 250.6 124.3 255 124.3 255L122.2 249.8C122.2 249.8 113.3 246.1 103.6 244C100.3 243.3 96.3 243.7 96.3 243.7Z" fill="#151823"/>
<path d="M123.7 253.2L122.3 249.9C122.3 249.9 110.9 244.6 103.7 244.1C118.2 249.3 117.4 251.8 118.9 252.4C120.4 253 123.7 253.2 123.7 253.2Z" fill="#282A35"/>
<path d="M125.2 272.5C125.6 282 133.8 301.6 135.2 304C137 307.3 144.6 312.7 147.7 311.5C149.9 310.6 150.8 309.1 152.2 304.6C153.6 300.1 152.8 293.3 152.5 291.7C152 289.1 148.5 285.1 148.5 285.1C148.5 285.1 139.7 263.1 137.6 260.4C135.4 257.6 125.2 272.5 125.2 272.5Z" fill="#151823"/>
<path d="M136.6 258.7C133.7 257.2 129.7 258.4 128 262.1C126.2 265.8 131.9 266.7 134.7 272.1C137.6 277.5 145 297.3 148.5 301C152.1 304.6 155.1 296.8 155.1 294.6C155.1 292.4 153 291.6 151.7 290.4C150.3 289.2 146.1 280.2 143.7 275.1C141.4 270.1 138.6 259.7 136.6 258.7Z" fill="#282A35"/>
<path d="M115.3 321.8C115 328.1 114 342.9 119.7 343.9C125.4 344.8 148.1 342.3 155.3 339.8C162.6 337.3 174.8 344.2 175.2 345.8C175.5 347.4 181.7 337.4 179.5 331.1C177.3 324.8 175.9 316.8 171.2 317.2C166.5 317.5 139.2 315.8 131.3 316.8C123.4 317.6 115.3 321.8 115.3 321.8Z" fill="#151823"/>
<path d="M113.4 338.4C113.5 342.7 110 345.5 103.8 344.9L77.1001 342C70.0001 340.9 71.0001 340.1 70.2001 335.7L62.1001 270C60.8001 263.2 64.6001 257.8 72.8001 258.7L99.5001 258.3C107.6 259.2 108.5 264.1 108.6 270.7L113.4 338.4Z" fill="#00A9EA"/>
<path d="M101.8 258.8C104.3 258.6 108.6 261.6 109 266.6C109.4 271.5 118.7 337.1 116.7 341.1C114.6 345 109.6 345.7 109.8 343.9C111.9 327.9 104.1 267.6 102.7 264.4C101.2 261.2 101.8 258.8 101.8 258.8Z" fill="#048BB5"/>
<path d="M187 342.6C187 342.6 187 386.1 187.7 398.1C203.9 399.5 216.2 399.9 216 396.4C215.8 392.8 213.8 355.3 214.1 352.6C214.4 349.9 220.6 330 213.4 326.3C189.3 314.1 187 342.6 187 342.6Z" fill="#151823"/>
<path d="M195.1 328C204.4 324.8 229.8 317 236.1 316.2C249.2 314.5 255.8 321.6 253 334.4C249.9 348.8 218.5 391.5 221 397.4C209.2 403.6 195.5 401.2 195.5 401.2C195.5 401.2 214.2 352.2 215.3 347.4C216.3 342.7 195.1 328 195.1 328Z" fill="#151823"/>
<path d="M178 228.5C178.9 231.6 178.9 243.1 177.7 247.9C176.5 252.7 170.7 259.2 170.7 259.2L199.3 264.4C199.3 264.4 195.3 246 200.4 242.6C203.4 240.4 178 228.5 178 228.5Z" fill="#CC9483"/>
<path d="M174.2 249.1C169.7 251.6 162.7 256.1 154.1 260.3C154.1 260.3 150.4 261.9 149.8 263.3C141.8 282.4 159.8 290.6 159 298.1C155.5 328.8 167.8 339.1 168.9 343C169.4 344.9 180.2 347.3 191.3 347.4C197.3 349.3 222.4 341.8 224.4 340.2C225.4 337.6 226 334.2 224.4 327.6C220.5 311.3 220.1 309.5 220.8 301.1C221.3 294.9 227.8 294.3 229.6 290.8C231.5 287.3 221.3 259.9 221.3 259.9C221.3 259.9 211.7 257.8 200.4 251.4C197.6 249.8 188.2 251.1 188.2 251.1L174.2 249.1Z" fill="#151823"/>
<path d="M176.1 244.2C177 244.6 190.3 248.7 198.4 247.8C199.6 249.4 198.2 253.2 198.2 253.2C198.2 253.2 174.1 250 173.4 249C172.7 248.1 176.1 244.2 176.1 244.2Z" fill="#D4D5D6"/>
<path d="M174.1 246.5L169.2 252.9C169.2 252.9 178.9 253.1 183 254C191.7 256 202.6 253.9 202.6 253.9L200.5 249.1C200.5 249.1 192.8 250.1 182.8 248.2C179.3 247.5 174.1 246.5 174.1 246.5Z" fill="#151823"/>
<path d="M153.2 435.7H155.9L169.3 351.5H162.2L153.2 435.7Z" fill="#00A9EA"/>
<path d="M231.6 438.1H234.3L223.3 354H216.3L231.6 438.1Z" fill="#00A9EA"/>
<path d="M172.8 422.7H174.3L185.5 354.9H179L172.8 422.7Z" fill="#00A9EA"/>
<path d="M249.5 425.6L251.9 425.8L243 350.3L236.5 351.2L249.5 425.6Z" fill="#00A9EA"/>
<path d="M157 350.7C159.6 348.8 164.7 347.6 166.6 346.6C167.5 346.2 174.3 343.5 174.3 343.5L241.1 341.6C241.1 341.6 242.8 341.9 244.7 342.4C245.9 342.7 246.8 347.3 246.4 349.4C246.2 350.5 231.3 357 226 358.8C220.5 360.6 219.3 360.6 216.6 360.6C211.5 360.5 165.1 361.5 157.6 360C154.7 359.2 154.8 352.2 157 350.7Z" fill="#00A9EA"/>
<path d="M246.4 336.2C240.9 341.3 224 347.4 218.9 348.8C213.8 350.2 193.9 343.7 191.1 337.7C188.3 331.7 214.7 323.8 223 323.8C231.4 323.9 246.4 336.2 246.4 336.2Z" fill="#151823"/>
<path d="M220.9 259.8C225.9 259.6 226.9 270.5 230.2 281C233.8 292.4 238.8 304.6 238.8 307.2C238.8 312.1 241.2 325.7 235.1 324.8C225.9 323.4 221.4 314.6 215.2 303.5C209 292.4 220.9 259.8 220.9 259.8Z" fill="#151823"/>
<path d="M202.4 223.7L203.7 228.9C203.7 228.9 206.1 229.5 207.4 228.3C208.7 227.1 208.4 224.8 208.2 223.6C208.1 222.5 203.6 222.8 202.4 223.7ZM207.1 228.1C206 229.2 203.8 228.6 203.8 228.6L202.6 224C203.6 223.2 207.6 222.9 207.8 223.9C208 225 208.3 227.1 207.1 228.1Z" fill="#282A35"/>
<path d="M205.4 221.6C206.1 224.1 205.2 224.1 205.6 226.7C205.7 227.5 206.4 228.4 206.5 229.3C207.1 236.5 206.6 243.1 203.6 244.8C199.3 247.2 184.3 244.1 179.6 235.7C175 227.3 180.1 214.5 188.9 211.2C198.5 207.5 202.9 212.3 205.4 221.6Z" fill="#CC9483"/>
<path d="M204.3 206.3C202.2 210.9 181.7 196.4 172.8 210.1C171.9 211.4 172.5 212.3 172.2 212.5C171.8 212.8 171.3 213 170.4 213.6C165.2 217.3 166.8 226.8 169.6 232C173.2 238.5 175.7 241.7 174.6 244.5C173.5 247.2 196.3 247 196.3 247C196.3 247 199.8 235.2 198.8 233.8C195 228.3 197.2 224.2 198.9 226.8C200.2 228.7 200.4 228.9 200.4 228.9L201.4 229.3C201.4 229.3 199.3 221.2 202 219.1C206.1 215.9 204.3 206.3 204.3 206.3Z" fill="#5B250E"/>
<path d="M190.8 204.7C194.1 205.3 199.8 207.8 201.7 206.1C200 207.4 198.1 207.5 198.1 207.5C198.1 207.5 202.4 207.8 203.5 206.1C202.9 208.6 201 208.8 201 208.8C201 208.8 204.5 207.9 205.1 205.2C204.9 209.7 205 209.6 202.5 209.7C198.9 209.8 192 205.1 185.8 204.4C184.2 204.1 187 204 190.8 204.7Z" fill="#873F26"/>
<path d="M198.5 211.2C201.2 212 206.2 212.4 206.4 207.7C205.5 209.3 200.1 212 196.3 209.6C192.5 207.3 198.5 211.2 198.5 211.2Z" fill="#873F26"/>
<path d="M197.7 226C197.7 226 206.9 225 207.9 224.3C208.6 223.9 207.9 226.4 207.9 226.4L198.8 226.9L197.7 226Z" fill="#282A35"/>
<path d="M204.4 391.5C203.6 386.7 196.8 385.7 194.4 387.1C191.3 388.9 190.2 395.4 190.9 400.2C191.3 403.1 187.4 408.1 186.5 411C185.8 413.4 185.6 417.6 188.9 419C190.8 419.8 192.1 420.9 199.6 422.1C201.5 422.4 203.4 423 203.9 420.8C204.5 417.8 204.4 413.5 204.6 406.5C204.6 403.5 204.4 391.5 204.4 391.5Z" fill="#151823"/>
<path d="M191.2 396.9L201.8 398.5L201.3 400.6L190.9 399.4L191.2 396.9Z" fill="#282A35"/>
<path d="M192.3 391.3C194.2 389.8 203 390.7 203.2 393.7C204.2 390.6 201.9 387.7 197.5 387.3C193.2 386.9 192.3 391.3 192.3 391.3Z" fill="#282A35"/>
<path d="M204.3 391.6C200.1 389.2 195 393.8 194.6 396.6C194 400.1 198.4 405.1 202.6 407.6C205.1 409.1 206.5 415.3 208.2 417.8C211.9 423.2 229.5 421.2 229.1 415.9C228.7 411.3 225.4 409 216.1 401.1C213.7 399.1 204.3 391.6 204.3 391.6Z" fill="#282A35"/>
<path d="M200.1 405.3L208.1 398.1L209.4 399.9L201.9 407.2L200.1 405.3Z" fill="#151823"/>
<path d="M196.6 400.9C196.6 398.5 203 392.2 205.4 393.9C203.7 391.1 200 391.1 196.8 394.3C193.7 397.4 196.6 400.9 196.6 400.9Z" fill="#151823"/>
<path d="M200 267.6C204 268.5 213.2 267.2 214.7 279.4C215.6 288.7 221.4 343.3 219.7 346.8C217.7 351.2 212 351.3 210 349.1C208 346.9 196 271.8 197.2 270.5C198.4 269.2 200 267.6 200 267.6Z" fill="#048BB5"/>
<path d="M216.2 344.1C216.2 348.9 210.6 352.6 203.8 352.5L165 350.2C158.7 350.1 154.7 348.5 154.3 344L147.3 279.5C146.8 273.9 151.9 269 158.9 268.6L196.8 267.6C206.1 267.5 210.8 271.7 210.8 277.6L216.2 344.1Z" fill="#00A9EA"/>
<path d="M292.7 180.2C280.6 176.4 280.1 173.1 270.4 168.7C269.9 168.5 271.6 162.3 271.6 162.3C281.9 165.8 299.9 168.8 300.5 168.7C302.1 168.6 297.7 181.8 292.7 180.2Z" fill="#D8A798"/>
<path d="M264.7 159.7C262.7 158.9 254.9 157.7 254.7 158.5C254.4 159.3 259.3 160 261.6 161.2C261.6 161.2 254.9 159.3 254.8 160.1C254.6 161.5 261.6 162.4 261.6 162.4C261.6 162.4 256.5 161.4 256.2 162.1C255.9 163.2 261.1 162.9 267.4 167C269.1 168 264.7 159.7 264.7 159.7Z" fill="#CC9987"/>
<path d="M271.8 161.8C269.7 160.3 265.1 158.4 265.1 158.4L260.1 157.1L255.8 156.5C255.8 156.5 254.8 157.5 257.1 158.2C257.8 158.4 260 158.8 260.8 159.3C262.7 160.3 264.3 161.4 265.1 163.2C266.2 165.8 261.4 166 259.4 167C258.5 167.5 258.9 168.1 261.3 167.9C264.7 167.7 268.6 170.3 273.6 168.8C278.6 167.3 279 166 277.3 165.2C275.6 164.3 271.8 161.8 271.8 161.8Z" fill="#D8A798"/>
<path d="M371.7 390.9C371.3 387.9 369.8 384.7 371.2 369.1C371.4 367.2 355.3 366.3 355.3 366.3C355.9 373.9 357.9 378.7 350.6 387.9C349 389.9 344.3 393.6 342.7 395.2C341.5 396.4 340.2 401.7 347.1 401.7C355.8 401.7 362.5 399.1 364.7 394.9C364.8 394.6 372.4 397 371.7 390.9Z" fill="#151823"/>
<path d="M393.8 375.7L407 373.9C407 373.9 405.4 375.7 406.4 380.2C408.3 388.7 411.3 390.1 416.6 395.3C419.6 398.2 418.4 402.7 418.4 402.7C418.4 402.7 417.1 404.2 414.5 404.7C411 405.4 403.2 404.1 401.8 402.2C401.6 401.9 399.9 399.5 399.1 398.9C397.9 397.9 396.1 398.1 395.7 397.2C395.7 397.2 394 393.3 395.6 389.1C397.1 384.8 393.8 375.7 393.8 375.7Z" fill="#151823"/>
<path d="M345.6 221.7C344 226.7 342.3 241.4 342.2 242.7C342.1 250.8 342 258 342 261.7C342 265.8 345.6 311.7 348.7 321.9C351.8 332.2 352.5 373.2 350.4 376.3C348.3 379.4 348.9 388.3 348.9 388.3C348.9 388.3 372.5 387.7 373.1 391.8C373.1 391.8 373.9 387.4 374.4 378.4C375.4 360.6 373 346.5 371 322C369.6 304.3 370.6 280.4 370.6 274.2C370.6 269.6 380.9 319.8 385 334.2C385 334.2 391.8 364.6 390.1 377.9C388.6 389.8 392.2 392.9 392.2 392.9C392.2 392.9 405.1 386.3 412.2 390.4C412.4 386.3 412.9 385.8 412 378.4C410.9 369.2 408.7 346.8 404.7 329.4C401.3 314.4 401.2 279.8 400.2 261.3C399.2 242.8 392.5 226.5 390.4 222.8C388.3 219.3 345.6 221.7 345.6 221.7Z" fill="#151823"/>
<path d="M345.9 263.7C346.7 284.8 349.7 306.8 352.1 316C354.4 325.3 355.9 331.3 357 336.7C358.1 342.1 357.8 369.5 357.8 371.4C357.8 373.3 370.4 384.3 367.9 383.1C361.1 380 355.9 378.8 355.9 380C355.9 381.1 364.6 384.1 364.6 384.1C364.6 384.1 349.7 384.5 348.9 384.1C348.1 383.7 349 377.3 349.6 373.2C350.1 369.1 353.2 341.3 350.1 331.3C347 321.3 341.7 260.4 342.9 253.9C343.9 247.3 345.9 263.7 345.9 263.7Z" fill="#282A35"/>
<path d="M371.2 268.9C375.4 277.4 384.3 322 386.3 328.2C388.2 334.4 391.4 339.9 393 341.8C394.5 343.7 403.2 374.6 402.1 380C398.3 380.4 394.4 379.6 394 381.6C393.6 383.5 404 382.8 404 382.8L390.9 389.7C390.9 389.7 390.1 383.1 390.1 378.1C390.1 373.1 389.3 349.4 385.4 337.1C381.5 324.8 379 314.7 377.5 303.9C375.8 293.1 371.2 268.9 371.2 268.9Z" fill="#282A35"/>
<path d="M373 147.8C372.3 146.4 371.6 145.2 370.1 145.5C368.6 145.7 353 148.9 352.7 151.7C352.3 154.5 356.4 157.2 359 157.5C361.6 157.7 373 147.8 373 147.8Z" fill="#66BCF7"/>
<path d="M353.7 144.4C354.8 147.9 354.9 151.7 353.8 154.9C352.7 158.1 358 162.7 359.9 162.5C361.8 162.3 372.2 152 372.2 152C372.2 152 369.9 140.2 369.4 137.4C368.9 134.6 353.7 144.4 353.7 144.4Z" fill="#CC9987"/>
<path d="M353.1 145.9C353.2 146.4 353.8 148.8 353.8 150.9C355.6 153 368.1 161.1 371.1 160.8C373.6 160.5 371.3 156.1 372.7 154.2C372.1 151.7 369.4 137.3 369.3 136.7L353.1 145.9Z" fill="url(#paint0_linear)"/>
<path d="M344.4 184.7L334.1 160.4L352.6 152.8C353.5 153.8 357 159.6 359.6 159.2C362.2 158.8 361.1 163.6 361.1 163.6L361.2 229.6L344.2 230C344.2 230 343.1 223.7 342.7 212.6C342.6 209.2 343.4 193.9 344.4 184.7Z" fill="white"/>
<path d="M359.1 211.7C358.8 193.8 359.3 165.1 361.9 163.6C364.2 162.4 371.9 156.9 372.6 155L373.2 153.8C383.6 157.7 392.1 159.1 391.6 160.8C391.6 160.8 391.2 174.8 390.8 181.5C390.3 189.6 384 206 384.8 213.7C385.2 218 389.7 229.8 389.7 229.8C389.7 229.8 367.9 234.6 361.2 233.9C359.3 233.7 359.2 221.8 359.1 211.7Z" fill="#DCE1E5"/>
<path d="M360 222.8L359.2 157.7L364.1 157.3L365.9 158.1L362.3 162.3L367 216.8L360 222.8Z" fill="#ED9621"/>
<path d="M354.2 218L357.1 162.4L354.5 158.6L355.8 157.4L359.9 157.6L359.8 162.3H359.7L360 222.8L354.2 218Z" fill="#ED9621"/>
<path d="M373.7 253.7C373.7 253.7 402 255.6 402.1 252.4C402.3 247.1 396.2 220.8 395.1 214.2C393.1 201.6 394.8 185.7 394.2 183.4C391 170.8 395.4 155.7 393.3 155.1C388.4 153.5 384.9 152.1 374.1 147.9C374.1 147.9 377.7 166.8 368.6 199.2C368 201.4 373.7 253.7 373.7 253.7Z" fill="#151823"/>
<path d="M337.8 224.1C338 221.7 334.8 188.2 331.9 182C329.2 176.1 334.2 166.3 332.8 157.2C332.8 157 344.1 155.8 351.4 149.4L348 163.2C349.1 179.1 351.6 195.7 351.6 195.7C351.6 195.7 353 260.2 352.2 260.6C349.8 261.5 336.5 259.9 336.5 259.9C336.5 259.9 337 233 337.8 224.1Z" fill="#151823"/>
<path d="M372 146.1C372.2 147.8 366.7 155.2 361.4 157.4C365.5 156.3 370.8 165.6 372.3 167.3C372 158.6 377.4 149.3 376.6 148.7C375.1 147.7 372 146.1 372 146.1Z" fill="white"/>
<path d="M353.5 150.5C353.3 152.8 356.8 157.3 357.6 157.7C354 157 349.2 166.6 349.2 166.6L347.9 154.7C348 154.6 353.6 149.5 353.5 150.5Z" fill="#DCE1E5"/>
<path d="M419.7 194.5L418.5 187.1C408.4 173.6 400.6 163.3 400.6 163.3C395.6 156.3 393.9 153.1 391.9 155.3C388.9 158.6 385.3 172.2 387.8 177.8C390 182.9 401.4 194.3 407.7 199.6C407.7 199.6 412.5 205 416.2 203.4L419.7 194.5Z" fill="#151823"/>
<path d="M373 145.9C378.1 151.4 369.4 190.2 368.6 199.9C368.6 199.9 381.7 165.5 384.2 163.7L379.7 158.8L384.6 157C384.6 157 380.4 151.1 379.2 149.8C378.1 148.4 373 145.9 373 145.9Z" fill="#282A35"/>
<path d="M334.8 156.7C333.6 156.3 331.9 157 327.3 159.2C325.7 160 312.9 164.8 306.1 166.6C297.2 165.9 278.3 162.9 278.3 162.9C274.9 162.2 277.1 178.1 278.5 179.6C279.9 181 305.2 185.2 305.2 185.2C309.2 185.6 335.5 184.2 337.9 181.4C340.5 178.5 334.8 156.7 334.8 156.7Z" fill="#151823"/>
<path d="M348.6 155.6C347.2 160.6 351.1 192.8 351.6 197.3C348 187.5 340.6 167.1 340.6 167.1L345.4 160.9L341.6 158.3C341.6 158.3 344 155.4 346.2 153.5C348.3 151.6 351.8 147.3 351.8 147.3L348.6 155.6Z" fill="#282A35"/>
<path d="M373.3 125.3C373.6 127.7 372.1 136.7 372.3 137.2C372.4 137.7 372.7 139.3 373.2 139.1C373.6 138.9 370.6 141.9 369.7 141.2C368.8 140.5 366.3 129 366.7 128.3C366.9 127.7 373.3 125.3 373.3 125.3Z" fill="#380F01"/>
<path d="M347.9 137.9C346.4 133.5 345.2 126.8 346.8 121.9C347.9 118.8 354.8 115.7 356.4 115.6C366.7 115 367.5 121.5 368 128.2C370.3 126.7 371.4 128.9 371.3 131.6C371.3 133.6 370.3 136 369 136.8C368.5 142.6 364.9 147.2 357.7 148.4C356.4 148.6 355.3 148.4 354.2 147.9C352.6 147.3 351.4 146 350.4 144.2C349.6 142.6 348 138.2 347.9 137.9Z" fill="#D8A798"/>
<path d="M368.2 114.5C367.3 112.9 361.1 112 361.2 113.3C359.7 112 359.9 115.3 359.9 115.3C359.7 112.9 362.7 119.1 362.6 119.7C368.6 119.5 365.3 126.9 366 127.9C366.9 129.2 366.7 130.4 366.7 130.4L368.1 129.7L369.5 127.4L372.6 129.8C372.7 129.8 376.1 117.4 368.2 114.5Z" fill="#380F01"/>
<path d="M347.1 135.6C347.1 137.9 347.6 147.8 348.9 149.9C350.2 152.1 354.4 156.7 356.8 156.6C358 154.6 356 143.9 356 143.9C356 143.9 353.3 145 350.7 142.7C348.1 140.4 347.1 135.6 347.1 135.6Z" fill="#59140A"/>
<path d="M352.1 139.5C351 139.8 349.9 143.1 349.8 144.4C349.7 145.7 353.4 141.4 354.4 141.7C354.3 139 354.3 139 354.3 139L352.1 139.5Z" fill="#59140A"/>
<path d="M354.3 139C354.3 139 356.7 138.7 357.6 139.5C358.6 140.3 361.1 142.8 361.1 142.8C361.1 142.8 360 144 357.4 142.4C356 141.5 354.3 141.7 354.3 141.7V139Z" fill="#380F01"/>
<path d="M367.6 125C367.5 127.4 366 136.1 364.6 139.3C363.2 142.3 356 143.7 354.8 144.1C354.6 145.5 356.4 156.9 356.4 156.9C356.4 156.9 362.3 156.3 365.5 150.4C367.2 147.2 369.1 139.5 369 137.9C368.8 135.2 367.6 125 367.6 125Z" fill="#380F01"/>
<path d="M345.9 129C344.6 125.3 344.5 122.1 344.7 120.1C344.9 118.1 341.7 115.6 343.3 112.4C344.9 109.2 347.2 110.5 347.2 110.5C347.2 110.5 352.3 106.4 355.6 108.2C358.5 109.8 358.1 108.6 359.7 109.6C360.1 109.8 361 111 361.4 111.2C361.6 111.3 361.8 111 362 111.1C364.2 112.8 365.9 115.5 365.2 117.9C363.9 122.6 362.3 118.9 359.4 118.4C356.5 117.9 352.9 121.2 352.9 121.2C352.9 121.2 353.5 120.4 351.1 120.4C345.3 120.3 345.9 129 345.9 129Z" fill="#5B250E"/>
<path d="M362.7 119.7C363.8 118.1 365.4 112.7 368.7 114.4C367.9 114.3 366.9 114.5 365.9 116C367.5 113.8 369.5 114.6 371.3 115.7C367.6 115.1 367.2 117.5 367.5 119C367.7 120.5 369 115.7 368.9 116.7C368.7 118.9 368.9 119.4 368.3 122.2C367.8 125 366.3 125.9 366.3 125.9C366.3 125.9 366 122.1 365 120.9C363.9 119.9 362.7 119.7 362.7 119.7Z" fill="#5B250E"/>
<path d="M352.6 119.6C351.8 117.7 351.4 117.5 348.4 114.1C345.4 110.7 346 109.2 347.2 109.8C346.4 108.7 345.4 109.8 345.6 110.7C346.3 113 347.5 115.4 349.4 117.1C351.5 118.8 352.6 119.6 352.6 119.6Z" fill="#380F01"/>
<path d="M350.2 119.1C347.9 118.8 345.2 117.2 344.9 114.8C344.5 112.4 345.7 110.2 345.7 110.2C345.7 110.2 344 111.5 343.9 112.9C343.8 114.2 344.8 118.4 346.9 119.2C348.9 119.9 350.2 119.1 350.2 119.1Z" fill="#380F01"/>
<path d="M349.3 119.5C348.3 119.9 344.1 118.3 343.4 116.1C342.8 113.9 343.4 112.2 343.6 111.9C342.8 112.9 341.1 116.9 344.1 119.4C347.1 122 348 121 348.4 120.8C348.8 120.4 349.3 119.5 349.3 119.5Z" fill="#380F01"/>
<path d="M352.8 121.2C352.8 118.6 353.7 116.5 353 113.1C352.3 109.8 349.1 108.6 348.1 109.8C348.3 108.6 350.4 107 352.3 109.2C354.2 111.4 355.6 114.3 354.1 117.8C352.7 121.4 352.8 121.2 352.8 121.2Z" fill="#380F01"/>
<path d="M353.3 120C354.3 118.6 356.4 114.9 354.6 111.5C352.8 108 350.5 108.5 349.1 109C350.1 108.2 353.5 108 355 109.8C356.5 111.6 358.6 115.9 356.2 118.4C354 120.9 353.3 120 353.3 120Z" fill="#380F01"/>
<path d="M363.7 120.1C364.7 117.2 367.1 115.1 361.2 110.5C362.9 111.6 363.9 116.5 363 117.2C362.4 112.3 361.2 110.2 359.1 109.2C360.5 110.2 363.1 117 361.8 118.3C360.5 119.6 362.2 119.7 362.6 119.6C363 119.7 363.7 120.1 363.7 120.1Z" fill="#380F01"/>
<path d="M423.8 183.3C425.5 185.9 423.7 201.5 418.6 203.2C413.6 204.9 410.6 204.6 410.6 190C410.6 175.4 423.8 183.3 423.8 183.3Z" fill="#151823"/>
<path d="M392 159.1C393.2 160.1 401.2 167.8 404.4 173.9C407.6 180 411.8 184.4 410.9 185.8C410 187.2 409.5 196 410.7 192.6C412 189.2 412.3 186.1 413.9 186.5C415.5 186.9 417.9 185.1 414.8 180C411.7 175 397.2 157.8 394.3 156.4C391.4 154.9 390.9 158.2 392 159.1Z" fill="#282A35"/>
<path d="M415 189.4C413.5 188.5 413.3 186.3 412.1 184.9C410.2 182.5 409 181.8 407.7 181.2C407.1 180.9 407.9 179.5 409.3 179.8C411.1 180.1 413.5 182.4 415 182.1C415 182.1 418 179.7 419.8 178.1C420.8 177.1 421.1 176.6 422.9 175.4C425.6 173.5 427.2 173 427.4 173.3C428.2 174.3 425.5 175.4 424.1 176.9C423.3 177.8 423 178.3 422.2 179.2C422.2 179.2 425.1 176.9 426.9 175.8C428.4 174.9 431.1 174.3 431.4 174.7C432.3 175.6 430.4 176.4 427.8 177.8C426.5 178.5 424.7 180.5 424.7 180.5C424.7 180.5 426.2 179.3 428 178.1C429.5 177.1 432.6 176.4 432.9 176.9C433.6 177.7 431.7 178.5 429.8 179.6C428 180.6 426.3 182.2 426.3 182.2C426.3 182.2 428.3 180.7 430.5 180.2C432.2 179.8 433.1 179.6 433.2 179.8C433.9 180.9 430.6 181.8 428.2 183.6C426.3 185 426.9 188.4 421.8 190.2C416.7 191.6 415 189.4 415 189.4Z" fill="#D8A798"/>
<path d="M369.2 208.2C369.6 216.1 370.4 250.8 375.4 256.2C380.4 261.6 404.3 254.5 402.1 252.4C401.6 251.9 390.1 257.5 379.9 255.2C374.6 254 370.7 228.8 370.4 219.4C370.1 210 369.2 208.2 369.2 208.2Z" fill="#282A35"/>
<path d="M352.1 209.5C352.5 218.5 354.4 251.3 353.3 255.3C352.2 259.3 349.1 260.7 346.2 260.7C343.3 260.7 336.6 259.9 336.6 259.9C336.6 259.9 345.6 259 348.6 257.2C351.7 255.4 351.8 244.8 351.8 233.8C351.9 223.3 352.1 209.5 352.1 209.5Z" fill="#282A35"/>
<defs>
<linearGradient id="paint0_linear" x1="376.523" y1="153.675" x2="334.425" y2="126.693" gradientUnits="userSpaceOnUse">
<stop stop-color="white"/>
<stop offset="0.5165" stop-color="#C6C0B9"/>
</linearGradient>
</defs>
</svg>
