<svg width="424" height="471" viewBox="0 0 424 471" fill="none" xmlns="http://www.w3.org/2000/svg">
<circle cx="212" cy="212" r="212" fill="#B3EAFF" fill-opacity="0.46"/>
<g clip-path="url(#clip0)">
<path d="M257.243 150.472H255.845C255.55 149.221 255.035 148.043 254.446 147.013L255.403 146.056C255.845 145.614 255.845 144.952 255.403 144.51L253.195 142.302C252.754 141.861 252.091 141.861 251.65 142.302L250.693 143.259C249.662 142.597 248.485 142.155 247.234 141.861V140.462C247.234 139.874 246.718 139.358 246.13 139.358H243.038C242.45 139.358 241.934 139.874 241.934 140.462V141.861C240.683 142.155 239.506 142.67 238.475 143.259L237.518 142.302C237.077 141.861 236.414 141.861 235.973 142.302L233.765 144.51C233.323 144.952 233.323 145.614 233.765 146.056L234.722 147.013C234.059 148.043 233.618 149.221 233.323 150.472H231.925C231.336 150.472 230.821 150.987 230.821 151.576V154.667C230.821 155.256 231.336 155.771 231.925 155.771H233.323C233.618 157.022 234.133 158.2 234.722 159.23L233.765 160.187C233.323 160.629 233.323 161.291 233.765 161.733L235.973 163.941C236.414 164.382 237.077 164.382 237.518 163.941L238.475 162.984C239.506 163.646 240.683 164.088 241.934 164.382V165.781C241.934 166.37 242.45 166.885 243.038 166.885H246.13C246.718 166.885 247.234 166.37 247.234 165.781V164.382C248.485 164.088 249.662 163.573 250.693 162.984L251.65 163.941C252.091 164.382 252.754 164.382 253.195 163.941L255.403 161.733C255.845 161.291 255.845 160.629 255.403 160.187L254.446 159.23C255.109 158.2 255.55 157.022 255.845 155.771H257.243C257.832 155.771 258.347 155.256 258.347 154.667V151.576C258.274 150.914 257.832 150.472 257.243 150.472ZM244.584 158.568C241.566 158.568 239.064 156.066 239.064 153.048C239.064 150.03 241.566 147.528 244.584 147.528C247.602 147.528 250.104 150.03 250.104 153.048C250.104 156.066 247.675 158.568 244.584 158.568Z" fill="#FFBC5A"/>
<path d="M295 212.885C296.545 212.885 297.797 211.632 297.797 210.088C297.797 208.543 296.545 207.291 295 207.291C293.455 207.291 292.203 208.543 292.203 210.088C292.203 211.632 293.455 212.885 295 212.885Z" stroke="white" stroke-width="1.1271" stroke-miterlimit="10"/>
<path d="M79.8671 164.824C81.4117 164.824 82.6639 163.572 82.6639 162.027C82.6639 160.482 81.4117 159.23 79.8671 159.23C78.3225 159.23 77.0703 160.482 77.0703 162.027C77.0703 163.572 78.3225 164.824 79.8671 164.824Z" stroke="white" stroke-width="1.1271" stroke-miterlimit="10"/>
<path d="M76.7762 284.35C76.7762 284.35 70.6674 260.43 71.477 247.845C72.2866 235.259 72.2866 235.259 72.2866 235.259C72.2866 235.259 65.3682 240.926 63.749 248.654C62.1298 256.382 66.1778 265.729 66.1778 265.729L69.4162 267.79C67.3554 269.851 68.6066 281.995 71.0354 285.233C73.5378 288.398 76.7762 284.35 76.7762 284.35Z" fill="#5E9873"/>
<path d="M71.1087 288.398C71.1087 288.398 60.5839 263.669 40.2703 258.369C30.9231 253.07 53.2239 253.88 61.3935 262.417C69.4895 270.955 73.5375 286.779 75.1567 288.398C76.7759 290.017 71.1087 288.398 71.1087 288.398Z" fill="#77BD93"/>
<path d="M76.1873 285.749C76.1873 285.749 78.3217 268.821 89.8033 262.123C94.5873 257.265 81.1185 261.608 77.6593 268.232C74.2001 274.856 74.4209 285.16 73.7585 286.485C73.0225 287.736 76.1873 285.749 76.1873 285.749Z" fill="#CADB7F"/>
<path d="M76.3341 300.395H67.5757C65.4413 300.395 63.6013 298.776 63.3069 296.715L60.9517 279.713H82.8845L80.5293 296.715C80.3085 298.849 78.4685 300.395 76.3341 300.395Z" fill="#FFBC5A"/>
<path d="M227.656 271.176C225.669 277.505 221.694 284.129 213.819 285.822C202.043 288.251 168.187 286.264 164.949 287.073C161.71 287.883 162.299 293.771 164.728 294.581C174.664 299.07 208.373 301.72 223.755 300.027C234.28 298.923 242.155 284.718 245.688 271.176H227.656Z" fill="#FF9666"/>
<path d="M167.525 288.766C167.525 288.766 165.243 285.748 162.741 283.688C160.239 281.627 154.645 280.67 152.584 281.406C150.523 282.142 151.848 283.467 153.835 283.908C155.896 284.424 157.883 283.908 159.429 285.16C160.975 286.411 161.711 287.22 161.711 287.22C161.711 287.22 158.399 285.454 155.381 286.19C152.363 286.926 148.021 289.502 148.757 290.753C149.493 292.004 153.835 289.502 155.381 289.502C156.927 289.502 159.429 290.238 159.429 290.238C159.429 290.238 156.117 290.238 154.351 292.52C152.584 294.801 150.008 295.316 152.29 295.832C154.571 296.347 166.715 296.862 168.776 295.096C170.837 293.329 167.525 288.766 167.525 288.766Z" fill="#FF9666"/>
<path d="M242.817 240.338C242.817 240.338 237.518 239.528 232.293 249.243C226.993 258.958 224.565 276.034 224.197 275.592C223.829 275.15 229.496 278.462 238.843 276.402C248.117 274.414 246.424 242.398 242.817 240.338Z" fill="#00315A"/>
<path d="M140.955 437.585C140.955 437.585 138.526 441.265 138.085 442.443C137.643 443.694 125.941 442.885 119.832 446.491C120.642 448.92 146.99 452.968 149.051 452.6C149.493 450.981 150.302 437.585 150.302 437.585H140.955Z" fill="#FFD4A3"/>
<path d="M247.233 329.614H237.518V448.11H247.233V329.614Z" fill="#84B5E9"/>
<path d="M280.721 450.981C280.721 452.968 263.573 454.661 242.376 454.661C221.179 454.661 204.03 453.041 204.03 450.981C204.03 448.92 220.296 446.417 241.493 446.417C262.689 446.417 280.721 448.993 280.721 450.981Z" fill="#84B5E9"/>
<path d="M294.558 251.893C303.243 254.395 309.499 262.05 310.235 271.102C311.928 291.563 312.149 344.997 270.344 358.098C218.382 374.363 180.258 357.288 183.496 343.451C186.734 329.688 205.429 341.832 223.24 297.157C241.125 252.482 255.698 250.862 276.011 250.053C283.666 249.758 289.774 250.494 294.558 251.893Z" fill="#FBD15B"/>
<path d="M305.304 260.651C304.2 258.222 302.36 255.867 299.637 253.806C294.19 251.23 286.536 249.685 276.085 250.053C255.771 250.862 241.198 252.481 223.313 297.157C205.429 341.832 186.808 329.614 183.569 343.451C182.613 347.352 185.041 351.547 190.193 355.153C204.693 362.661 232.661 366.193 266.369 355.669C318.331 339.329 305.304 260.651 305.304 260.651Z" fill="#FFBC5A"/>
<path d="M268.798 325.934C268.798 325.934 263.941 351.106 235.531 356.773C207.122 362.44 188.427 367.298 182.76 368.917C177.093 370.536 156.779 436.261 153.541 439.499C150.303 442.738 143.016 442.738 138.085 437.88C134.847 433.022 155.97 357.509 166.495 346.984C177.019 336.459 220.075 323.432 220.075 323.432C220.075 323.432 239.579 312.981 268.798 325.934Z" fill="#00315A"/>
<path d="M251.134 329.246C251.134 329.393 251.723 340.949 233.765 344.849C228.245 346.027 221.179 347.278 213.746 348.677C195.64 351.915 176.946 355.301 173.413 358.833C169.07 363.176 151.48 425.073 146.77 441.854C147.211 441.854 147.653 441.854 148.021 441.854C156.19 412.635 170.69 363.249 174.222 359.717C177.534 356.405 196.891 352.945 213.966 349.854C221.4 348.529 228.466 347.278 233.986 346.027C252.974 341.905 252.312 329.32 252.312 329.173L251.134 329.246Z" fill="#00A9EA"/>
<path d="M218.383 380.251C218.383 380.251 220.002 384.373 220.738 385.403C221.474 386.433 214.114 395.633 213.599 402.699C216.027 403.435 234.501 384.152 235.384 382.238C234.28 380.987 223.755 372.597 223.755 372.597L218.383 380.251Z" fill="#FFD4A3"/>
<path d="M150.671 329.393C150.671 329.393 184.674 369.505 216.248 381.576C223.608 381.576 225.154 379.662 226.479 375.025C227.803 370.315 182.907 319.31 168.776 315.336C154.719 311.288 146.623 324.683 150.671 329.393Z" fill="#00315A"/>
<path d="M157.81 317.029C157.81 317.029 159.061 310.331 176.651 316.44C194.315 322.549 210.728 321.886 210.728 321.886L215.586 338.962L185.778 339.55L157.81 317.029Z" fill="#00315A"/>
<path d="M294.043 252.261C297.281 274.267 296.251 303.118 266.517 330.424C254.225 338.005 219.781 337.342 204.619 321.96C199.909 307.019 223.461 300.616 228.76 273.384C234.059 246.152 240.315 236.51 254.741 233.64C258.053 232.978 261.438 232.315 264.824 231.653C278.734 228.93 291.982 238.35 294.043 252.261Z" fill="#00A9EA"/>
<path d="M284.033 240.926C284.033 240.926 292.792 241.957 294.19 256.53C295.588 271.176 285.873 300.763 270.417 302.382C254.961 304.002 221.326 301.352 211.39 296.936C208.961 296.126 208.372 290.238 211.611 289.429C214.849 288.619 248.779 290.68 260.481 288.178C272.257 285.749 275.275 272.133 276.084 265.067C276.894 258.002 275.643 248.213 278.734 244.386C281.752 240.558 284.033 240.926 284.033 240.926Z" fill="#FFA575"/>
<path d="M214.187 291.195C214.187 291.195 211.905 288.177 209.403 286.117C206.901 284.056 201.307 283.099 199.246 283.835C197.185 284.571 198.51 285.896 200.497 286.337C202.558 286.853 204.545 286.337 206.091 287.589C207.637 288.84 208.373 289.649 208.373 289.649C208.373 289.649 205.061 287.883 202.043 288.619C199.025 289.355 194.683 291.931 195.419 293.182C196.155 294.433 200.497 291.931 202.043 291.931C203.589 291.931 206.091 292.667 206.091 292.667C206.091 292.667 202.779 292.667 201.013 294.949C199.246 297.23 196.67 297.745 198.952 298.261C201.233 298.776 213.377 299.291 215.438 297.525C217.499 295.758 214.187 291.195 214.187 291.195Z" fill="#FFA575"/>
<path d="M267.327 285.749C271.301 287.957 279.471 292.814 282.194 296.789C287.051 297.598 297.208 272.427 295.957 253.733C292.719 237.467 281.752 237.909 277.704 242.398C273.803 246.667 275.57 263.08 266.223 282.437C265.634 283.614 266.075 285.086 267.327 285.749Z" fill="#00315A"/>
<path d="M254.594 227.825C254.594 227.825 249.442 234.817 252.459 237.835C255.477 240.853 264.971 237.246 268.872 232.021C271.006 228.709 267.989 217.374 267.989 217.374L254.594 227.825Z" fill="#FFA575"/>
<path d="M250.546 194.411C250.546 194.411 246.424 196.03 245.32 204.2C244.216 212.37 240.389 212.443 239.947 214.283C240.315 215.902 243.627 215.534 243.627 215.534C243.627 215.534 241.272 225.912 250.398 229.224C259.525 232.462 270.344 226.795 273.141 219.141C275.938 211.486 276.674 202.728 270.418 197.061C264.088 191.394 256.728 190.952 250.546 194.411Z" fill="#FFA575"/>
<path d="M277.042 200.005C277.042 200.005 279.765 199.784 281.679 205.23C283.224 210.898 275.938 220.539 271.448 223.042C267.032 225.544 265.339 223.557 265.487 222.674C265.634 221.864 268.946 221.349 270.271 218.699C271.595 216.05 270.786 213.621 268.504 213.179C266.223 212.664 265.56 216.27 264.383 217.595C263.205 218.92 262.837 219.288 261.586 218.11C260.261 216.933 265.339 211.854 265.045 209.426C264.751 206.997 262.763 203.317 258.2 203.906C253.637 204.421 246.424 203.685 244.29 196.766C244.29 196.766 242.303 191.909 244.143 188.597C245.983 186.462 245.394 189.48 248.706 189.848C252.018 190.142 256.287 184.034 266.075 187.714C275.864 191.32 277.042 195.294 277.042 200.005Z" fill="url(#paint0_linear)"/>
<path d="M350.862 285.896H313.032V292.446H350.862V285.896Z" fill="white"/>
<path d="M352.261 285.896V284.719H275.569V292.447H313.032V285.896H352.261Z" fill="#231D5A"/>
<path d="M354.689 281.774H316.859V284.718H354.689V281.774Z" fill="white"/>
<path d="M356.161 281.774V280.67H279.396V284.718H316.859V281.774H356.161Z" fill="#456BFF"/>
<path d="M356.382 292.447H279.617V300.175H356.382V292.447Z" fill="#FF5A61"/>
<path d="M356.382 293.624H317.08V300.174H356.382V293.624Z" fill="white"/>
<path d="M306.628 287.736H297.428V289.797H306.628V287.736Z" fill="#FF8E75"/>
<path d="M308.468 287.736H307.364V289.797H308.468V287.736Z" fill="#484FB6"/>
<path d="M243.627 298.555H185.262V296.126H241.125C242.523 296.126 243.627 297.23 243.627 298.555Z" fill="#C2E0FF"/>
<path d="M192.77 298.114H102.683L95.1025 246.078C94.8817 244.459 96.1329 243.061 97.6785 243.061H182.392C183.717 243.061 184.821 244.018 184.968 245.342L192.77 298.114Z" fill="#005087"/>
<path d="M191.003 298.114H100.99L93.3359 246.078C93.1151 244.459 94.3663 243.061 95.9119 243.061H180.626C181.95 243.061 183.054 244.018 183.202 245.342L191.003 298.114Z" fill="#00315A"/>
<path d="M144.856 273.678C145.224 277.211 142.574 280.008 138.894 280.008C135.214 280.008 131.976 277.211 131.608 273.678C131.24 270.146 133.889 267.349 137.569 267.349C141.176 267.422 144.488 270.219 144.856 273.678Z" fill="#D4E9FF"/>
<path d="M334.67 304.885L305.451 455.029H308.69L341.221 304.075L334.67 304.885Z" fill="#00315A"/>
<path d="M352.555 304.885L381.775 455.029H378.536L346.079 304.075L352.555 304.885Z" fill="#00315A"/>
<path d="M370.808 410.795H314.209V415.064H370.808V410.795Z" fill="#00315A"/>
<path d="M53.4448 304.885L24.2256 455.029H27.464L59.9216 304.075L53.4448 304.885Z" fill="#00315A"/>
<path d="M71.3297 304.885L100.549 455.029H97.3105L64.7793 304.075L71.3297 304.885Z" fill="#00315A"/>
<path d="M89.509 410.795H32.9106V415.064H89.509V410.795Z" fill="#00315A"/>
<path d="M364.92 306.504H41.0801C36.3697 306.504 32.5425 302.677 32.5425 297.966H373.458C373.458 302.677 369.63 306.504 364.92 306.504Z" fill="#ED9621"/>
<path d="M267.547 219.877C268.563 219.877 269.387 219.053 269.387 218.037C269.387 217.021 268.563 216.197 267.547 216.197C266.531 216.197 265.707 217.021 265.707 218.037C265.707 219.053 266.531 219.877 267.547 219.877Z" fill="white"/>
<path d="M266.959 218.037C266.959 218.037 267.989 231.211 256.213 237.099C244.437 242.987 236.93 253.365 240.389 266.76C243.848 280.155 243.259 295.169 236.709 297.009" stroke="white" stroke-width="0.674" stroke-miterlimit="10"/>
<path d="M247.307 227.752C247.307 227.752 246.056 229.96 245.688 235.701C245.246 241.368 245.909 244.606 245.909 244.606" stroke="white" stroke-width="0.674" stroke-miterlimit="10"/>
<path d="M151.185 211.633H100.254C96.795 211.633 94.0718 208.837 94.0718 205.451V163.352C94.0718 159.893 96.8686 157.169 100.254 157.169H151.185C154.645 157.169 157.368 159.966 157.368 163.352V205.451C157.368 208.837 154.571 211.633 151.185 211.633Z" fill="#E1F3F9"/>
<path d="M149.787 157.169H101.726C97.5311 157.169 94.1455 160.555 94.1455 164.75V169.755H157.442V164.75C157.368 160.555 153.982 157.169 149.787 157.169Z" fill="#C2E0FF"/>
<path d="M133.08 165.854C134.136 165.854 134.993 164.998 134.993 163.941C134.993 162.884 134.136 162.027 133.08 162.027C132.023 162.027 131.166 162.884 131.166 163.941C131.166 164.998 132.023 165.854 133.08 165.854Z" fill="#456BFF"/>
<path d="M141.323 165.854C142.38 165.854 143.236 164.998 143.236 163.941C143.236 162.884 142.38 162.027 141.323 162.027C140.266 162.027 139.409 162.884 139.409 163.941C139.409 164.998 140.266 165.854 141.323 165.854Z" fill="#77BD93"/>
<path d="M149.566 165.854C150.623 165.854 151.48 164.998 151.48 163.941C151.48 162.884 150.623 162.027 149.566 162.027C148.509 162.027 147.652 162.884 147.652 163.941C147.652 164.998 148.509 165.854 149.566 165.854Z" fill="#FF5A61"/>
<path d="M132.786 191.393C134.994 186.094 137.054 186.757 135.803 183.077C134.552 179.397 132.565 178.587 129.326 179.029C126.088 179.47 118.802 187.787 118.802 187.787C118.802 187.787 120.642 191.467 116.594 192.056C112.546 192.645 110.117 194.411 108.498 199.342C106.878 204.2 103.64 201.55 101.211 206.261C100.328 208.027 100.034 209.867 100.402 211.486C100.843 211.56 101.285 211.633 101.726 211.633H117.33C119.906 209.352 122.408 207.144 124.984 207.291C130.43 207.512 136.171 208.542 136.539 201.182C136.907 193.896 130.578 196.693 132.786 191.393Z" fill="#231D5A"/>
<path d="M133.448 184.475C133.448 184.475 134.184 187.566 134.184 188.965L135.435 191.909H133.89C133.89 191.909 133.448 195.147 132.933 196.546C132.197 197.282 126.309 195 125.058 194.043C124.101 193.454 121.01 190.51 121.525 185.285C121.966 180.059 128.002 179.397 129.547 179.544C131.166 179.691 133.154 181.752 133.448 184.475Z" fill="#FF716A"/>
<path d="M128.885 195.294C128.885 195.294 126.529 196.325 126.677 199.857L118.065 199.489C118.065 199.489 123.806 195.294 122.776 190.216L128.885 195.294Z" fill="#FF716A"/>
<path d="M133.227 180.501C133.227 180.501 134.11 185.579 129.4 186.904C125.867 187.787 124.837 187.272 124.837 187.272C124.837 187.272 124.469 185.285 122.85 186.609C121.304 187.934 122.997 189.848 123.88 190.657L122.85 192.35C122.85 192.35 118.434 189.48 117.845 185.137C117.33 180.795 120.568 177.925 125.573 177.262C130.577 176.673 133.08 179.176 133.227 180.501Z" fill="#231D5A"/>
<path d="M107.909 211.633H138.821C135.877 206.923 128.958 197.944 120.568 197.944C111.736 197.944 108.571 208.91 107.909 211.633Z" fill="#FFBC5A"/>
<path d="M126.75 213.989V224.072H204.251V264.258H192.917" stroke="#D4E9FF" stroke-width="1.3479" stroke-miterlimit="10" stroke-linecap="round" stroke-linejoin="round"/>
<path d="M237.592 177.115H186.661C183.202 177.115 180.479 174.318 180.479 170.933V128.834C180.479 125.374 183.275 122.651 186.661 122.651H237.592C241.051 122.651 243.775 125.448 243.775 128.834V170.933C243.848 174.318 241.051 177.115 237.592 177.115Z" fill="#E1F3F9"/>
<path d="M236.194 122.651H188.133C183.938 122.651 180.552 126.037 180.552 130.232V135.237H243.848V130.232C243.848 126.037 240.389 122.651 236.194 122.651Z" fill="#C2E0FF"/>
<path d="M219.56 131.336C220.617 131.336 221.474 130.479 221.474 129.422C221.474 128.366 220.617 127.509 219.56 127.509C218.503 127.509 217.646 128.366 217.646 129.422C217.646 130.479 218.503 131.336 219.56 131.336Z" fill="#456BFF"/>
<path d="M227.73 131.336C228.786 131.336 229.643 130.479 229.643 129.422C229.643 128.366 228.786 127.509 227.73 127.509C226.673 127.509 225.816 128.366 225.816 129.422C225.816 130.479 226.673 131.336 227.73 131.336Z" fill="#77BD93"/>
<path d="M235.973 131.336C237.03 131.336 237.886 130.479 237.886 129.422C237.886 128.366 237.03 127.509 235.973 127.509C234.916 127.509 234.059 128.366 234.059 129.422C234.059 130.479 234.916 131.336 235.973 131.336Z" fill="#FF5A61"/>
<path d="M218.162 158.862C218.162 158.862 218.309 164.75 216.101 167.032C215.586 168.651 220.885 170.197 224.859 165.928C226.626 163.794 226.846 162.763 226.846 162.763C226.846 162.763 224.786 160.555 225.154 155.992C223.093 156.802 218.162 158.862 218.162 158.862Z" fill="#FF8E75"/>
<path d="M213.746 143.48C213.746 143.48 211.832 144.584 211.906 148.853C211.979 153.048 210.066 153.416 209.992 154.373C210.287 155.182 211.906 154.667 211.906 154.667C211.906 154.667 211.538 160.113 216.395 160.997C221.253 161.88 226.258 158.2 226.994 154.078C227.803 149.957 227.435 145.541 223.829 143.185C220.296 140.83 216.543 141.198 213.746 143.48Z" fill="#FF8E75"/>
<path d="M212.053 146.497C212.053 146.497 208.078 145.982 210.213 140.021C212.347 134.059 219.266 137.371 222.799 139.285C226.479 141.272 227.067 144.363 227.067 144.363C227.067 144.363 229.128 144.437 229.643 146.645C230.159 148.853 228.392 154.593 226.552 155.697C224.712 156.801 225.595 150.03 223.829 150.398C221.989 150.693 222.136 154.593 222.136 154.593L220.959 154.299C220.959 154.299 220.002 149.957 220.517 148.485C221.032 147.013 221.032 147.013 221.032 147.013C221.032 147.013 218.603 149.957 212.053 146.497Z" fill="#231D5A"/>
<path d="M236.194 177.115C238.696 177.115 240.904 175.937 242.302 174.097C239.064 168.43 233.838 162.984 225.816 162.984C216.101 162.984 207.637 170.123 201.675 177.189H236.194V177.115Z" fill="#4582FF"/>
<path d="M161.71 191.025H214.997V180.059" stroke="#D4E9FF" stroke-width="1.3479" stroke-miterlimit="10" stroke-linecap="round" stroke-linejoin="round"/>
<path d="M105.038 184.107H103.64C103.345 182.856 102.83 181.678 102.241 180.648L103.198 179.691C103.64 179.25 103.64 178.587 103.198 178.146L100.99 175.938C100.549 175.496 99.8861 175.496 99.4445 175.938L98.4877 176.894C97.4573 176.232 96.2797 175.79 95.0285 175.496V174.098C95.0285 173.509 94.5133 172.994 93.9245 172.994H90.8333C90.2445 172.994 89.7293 173.509 89.7293 174.098V175.496C88.4781 175.79 87.3005 176.306 86.2701 176.894L85.3133 175.938C84.8717 175.496 84.2093 175.496 83.7677 175.938L81.5597 178.146C81.1181 178.587 81.1181 179.25 81.5597 179.691L82.5165 180.648C81.8541 181.678 81.4125 182.856 81.1181 184.107H79.7197C79.1309 184.107 78.6157 184.622 78.6157 185.211V188.302C78.6157 188.891 79.1309 189.406 79.7197 189.406H81.1181C81.4125 190.658 81.9277 191.835 82.5165 192.866L81.5597 193.822C81.1181 194.264 81.1181 194.926 81.5597 195.368L83.7677 197.576C84.2093 198.018 84.8717 198.018 85.3133 197.576L86.2701 196.619C87.3005 197.282 88.4781 197.723 89.7293 198.018V199.416C89.7293 200.005 90.2445 200.52 90.8333 200.52H93.9245C94.5133 200.52 95.0285 200.005 95.0285 199.416V198.018C96.2797 197.723 97.4573 197.208 98.4877 196.619L99.4445 197.576C99.8861 198.018 100.549 198.018 100.99 197.576L103.198 195.368C103.64 194.926 103.64 194.264 103.198 193.822L102.241 192.866C102.904 191.835 103.345 190.658 103.64 189.406H105.038C105.627 189.406 106.142 188.891 106.142 188.302V185.211C106.069 184.622 105.627 184.107 105.038 184.107ZM92.3789 192.277C89.3613 192.277 86.8589 189.774 86.8589 186.757C86.8589 183.739 89.3613 181.237 92.3789 181.237C95.3965 181.237 97.8989 183.739 97.8989 186.757C97.8989 189.774 95.4701 192.277 92.3789 192.277Z" fill="#00A9EA"/>
<path d="M87.4479 209.573C88.6267 209.573 89.5823 208.617 89.5823 207.438C89.5823 206.26 88.6267 205.304 87.4479 205.304C86.2691 205.304 85.3135 206.26 85.3135 207.438C85.3135 208.617 86.2691 209.573 87.4479 209.573Z" fill="#00A9EA"/>
<path d="M250.914 173.362C252.093 173.362 253.048 172.406 253.048 171.227C253.048 170.048 252.093 169.093 250.914 169.093C249.735 169.093 248.779 170.048 248.779 171.227C248.779 172.406 249.735 173.362 250.914 173.362Z" fill="#FFBC5A"/>
<path d="M200.866 209.941C202.043 209.499 202.853 208.395 202.853 207.07C202.853 205.377 201.454 204.053 199.835 204.053C198.142 204.053 196.818 205.451 196.818 207.07C196.818 208.395 197.627 209.499 198.805 209.941C197.554 210.382 196.523 211.56 195.934 213.179C195.198 210.014 193.432 207.585 191.224 206.776C192.917 206.113 194.094 204.494 194.094 202.581C194.094 200.078 192.107 198.091 189.605 198.091C187.102 198.091 185.115 200.078 185.115 202.581C185.115 204.494 186.293 206.113 187.986 206.776C185.778 207.585 183.938 210.014 183.275 213.179C182.686 211.56 181.656 210.382 180.405 209.941C181.582 209.499 182.392 208.395 182.392 207.07C182.392 205.377 180.994 204.053 179.374 204.053C177.682 204.053 176.357 205.451 176.357 207.07C176.357 208.395 177.166 209.499 178.344 209.941C176.357 210.677 174.885 213.326 174.885 216.491C174.885 216.565 174.885 216.638 174.885 216.712H183.054H184.011H195.566H196.523H204.693C204.693 216.638 204.693 216.565 204.693 216.491C204.325 213.326 202.853 210.677 200.866 209.941Z" fill="#C2E0FF"/>
<path d="M291.541 193.454H261.144C260.261 193.454 259.598 192.718 259.598 191.909V174.245C259.598 173.361 260.334 172.699 261.144 172.699H291.614C292.497 172.699 293.16 173.435 293.16 174.245V191.909C293.16 192.718 292.424 193.454 291.541 193.454Z" fill="white"/>
<path d="M292.424 173.067L276.673 186.389L260.629 172.846C260.408 172.92 260.261 173.067 260.113 173.214L270.344 181.825L259.598 190.878V191.467C259.598 191.541 259.598 191.614 259.598 191.688L270.859 182.193L276.747 187.125L282.635 182.193L293.233 191.099V190.289L283.15 181.752L292.939 173.509C292.718 173.361 292.571 173.214 292.424 173.067Z" fill="#6FA4FF"/>
<path d="M161.711 228.635H143.752C143.237 228.635 142.795 228.193 142.795 227.678V217.227C142.795 216.712 143.237 216.27 143.752 216.27H161.711C162.226 216.27 162.667 216.712 162.667 217.227V227.678C162.594 228.267 162.226 228.635 161.711 228.635Z" fill="white"/>
<path d="M162.226 216.638L152.952 224.513L143.458 216.491C143.311 216.565 143.237 216.638 143.164 216.712L149.199 221.79L142.869 227.163V227.531C142.869 227.605 142.869 227.605 142.869 227.678L149.493 222.085L152.952 225.029L156.412 222.085L162.668 227.384V226.869L156.706 221.864L162.447 217.006C162.373 216.859 162.3 216.712 162.226 216.638Z" fill="#6FA4FF"/>
<path d="M164.36 147.381H144.267C143.457 147.381 142.869 146.718 142.869 145.982V143.922C142.869 143.112 143.531 142.523 144.267 142.523H164.36C165.169 142.523 165.758 143.186 165.758 143.922V145.982C165.758 146.718 165.096 147.381 164.36 147.381Z" fill="#00A9EA"/>
<path d="M164.065 143.774H145.518V144.437H164.065V143.774Z" fill="white"/>
<path d="M150.817 145.467H145.518V146.13H150.817V145.467Z" fill="white"/>
<path d="M169.365 139.211H149.272C148.462 139.211 147.874 138.549 147.874 137.813V135.752C147.874 134.942 148.536 134.354 149.272 134.354H169.365C170.174 134.354 170.763 135.016 170.763 135.752V137.813C170.763 138.549 170.101 139.211 169.365 139.211Z" fill="#00315A"/>
<path d="M160.017 135.605H150.523V136.267H160.017V135.605Z" fill="white"/>
<path d="M155.822 137.298H150.523V137.96H155.822V137.298Z" fill="white"/>
<path d="M164.36 131.189H144.267C143.457 131.189 142.869 130.526 142.869 129.79V127.729C142.869 126.92 143.531 126.331 144.267 126.331H164.36C165.169 126.331 165.758 126.993 165.758 127.729V129.79C165.758 130.526 165.096 131.189 164.36 131.189Z" fill="#00A9EA"/>
<path d="M164.065 127.582H145.518V128.245H164.065V127.582Z" fill="white"/>
<path d="M150.817 129.201H145.518V129.864H150.817V129.201Z" fill="white"/>
<path d="M175.326 153.71H159.502C158.693 153.71 158.104 153.048 158.104 152.312V151.208C158.104 150.398 158.766 149.81 159.502 149.81H175.326C176.136 149.81 176.725 150.472 176.725 151.208V152.312C176.725 153.048 176.136 153.71 175.326 153.71Z" fill="#00315A"/>
<path d="M167.966 150.766H160.238V151.355H167.966V150.766Z" fill="white"/>
<path d="M164.507 152.165H160.238V152.754H164.507V152.165Z" fill="white"/>
<path d="M271.301 131.998H289.553C291.32 131.998 292.718 133.397 292.718 135.163V159.377C292.718 161.144 291.32 162.542 289.553 162.542H279.691C279.029 163.573 277.336 165.781 275.496 166.59V162.542H271.301C269.534 162.542 268.136 161.144 268.136 159.377V135.163C268.136 133.397 269.534 131.998 271.301 131.998Z" fill="#6FA4FF"/>
<path d="M284.622 137.592H271.668V138.696H284.622V137.592Z" fill="white"/>
<path d="M278.145 141.198H271.668V142.302H278.145V141.198Z" fill="white"/>
<path d="M279.985 144.657H271.668V145.761H279.985V144.657Z" fill="white"/>
<path d="M289.332 148.705H271.668V149.809H289.332V148.705Z" fill="white"/>
<path d="M280.5 152.312H271.668V153.416H280.5V152.312Z" fill="white"/>
<path d="M283.003 155.771H271.668V156.875H283.003V155.771Z" fill="white"/>
</g>
<defs>
<linearGradient id="paint0_linear" x1="243.695" y1="175.908" x2="281.305" y2="222.144" gradientUnits="userSpaceOnUse">
<stop stop-color="#456BFF"/>
<stop offset="0.0531289" stop-color="#3F5DE1"/>
<stop offset="0.1374" stop-color="#3649B8"/>
<stop offset="0.2239" stop-color="#2F3996"/>
<stop offset="0.3116" stop-color="#2A2D7C"/>
<stop offset="0.4012" stop-color="#262469"/>
<stop offset="0.4936" stop-color="#241F5E"/>
<stop offset="0.5937" stop-color="#231D5A"/>
</linearGradient>
<clipPath id="clip0">
<rect width="368" height="368" fill="white" transform="translate(19 103)"/>
</clipPath>
</defs>
</svg>
