<svg width="539" height="421" viewBox="0 0 539 421" fill="none" xmlns="http://www.w3.org/2000/svg">
<path d="M381.039 234.611C383.471 228.603 384.931 222.434 385.661 216.102L398.229 211.555L396.04 197.105L393.851 182.655L380.471 182.006C378.038 176.242 374.714 170.722 370.659 165.689L376.335 153.512L364.659 144.825L352.982 136.139L343.089 145.15C337.088 142.715 330.925 141.253 324.6 140.523L320.059 127.94L305.626 130.132L291.192 132.324L290.543 145.718C284.786 148.154 279.272 151.482 274.244 155.541L262.081 149.859L253.404 161.548L244.728 173.238L253.728 183.142C251.296 189.15 249.836 195.319 249.106 201.651L236.538 206.198L238.727 220.648L240.916 235.098L254.296 235.747C256.729 241.511 260.053 247.031 264.108 252.064L258.432 264.241L270.109 272.928L281.785 281.614L291.678 272.603C297.679 275.038 303.842 276.581 310.167 277.23L314.708 289.813L329.141 287.621L343.575 285.429L344.224 272.035C349.981 269.599 355.495 266.271 360.523 262.212L372.686 267.894L381.363 256.204L390.039 244.515L381.039 234.611ZM296.219 237.695C280.407 225.924 277.001 203.6 288.759 187.688C300.517 171.858 322.817 168.449 338.71 180.22C354.522 191.991 357.928 214.316 346.17 230.227C334.412 246.057 312.032 249.385 296.219 237.695Z" fill="#FFE1B0"/>
<path d="M280.164 321.716C280.164 321.716 280.488 320.174 282.677 320.174C285.759 320.174 286.002 324.558 285.515 327.237C284.867 330.808 283.488 332.27 286.002 341.687C286.002 341.687 280.488 330.159 281.38 326.668C281.948 324.233 280.164 321.716 280.164 321.716Z" fill="#3A3F47"/>
<path d="M262.891 350.86C262.891 350.86 261.594 350.211 261.594 349.48C261.594 348.749 261.269 347.775 261.188 347.532C261.026 347.126 260.945 345.665 260.459 345.908C259.972 346.152 260.459 348.262 260.459 348.749C260.459 349.236 258.918 347.938 258.431 347.938C257.945 347.938 256.08 350.86 257.215 351.591C258.35 352.321 260.053 352.402 260.296 352.484C260.54 352.565 261.432 352.89 261.432 352.89L262.891 350.86Z" fill="#FFD1A9"/>
<path d="M258.756 348.019C258.756 348.019 255.026 345.989 254.701 346.07C254.377 346.152 254.215 346.395 254.62 346.558C254.945 346.801 258.188 348.587 258.188 348.587C258.188 348.587 253.404 346.963 253.079 346.963C252.917 346.963 252.674 347.369 252.836 347.532C252.998 347.694 257.702 349.561 257.702 349.561C257.702 349.561 253.242 348.1 252.998 348.181C252.755 348.262 252.674 348.668 252.998 348.831C253.323 348.993 257.377 350.617 257.377 350.617C257.377 350.617 254.053 349.724 253.89 349.967C253.809 350.13 253.566 350.454 254.458 350.617C255.35 350.779 257.296 351.51 257.296 351.51L258.756 348.019Z" fill="#FFD1A9"/>
<path d="M274.163 353.702C274.163 353.702 268.081 352.322 266.865 351.997C265.486 351.591 262.891 350.86 262.891 350.86L261.513 352.89C261.513 352.89 269.378 356.949 270.838 357.517C272.216 358.085 275.865 359.384 275.865 359.384L274.163 353.702Z" fill="#FFD1A9"/>
<path d="M247.728 378.948C247.728 378.948 245.944 386.579 245.863 388.04C245.782 389.502 240.673 409.31 240.268 410.284C239.862 411.258 242.214 412.07 242.863 411.42C243.511 410.771 248.62 399.73 249.755 397.701C250.891 395.671 253.729 390.882 253.891 386.092C254.134 381.384 247.728 378.948 247.728 378.948Z" fill="#FFB37B"/>
<path d="M246.43 381.222C246.43 381.222 249.187 388.528 249.998 389.746C250.809 391.045 257.62 410.284 257.783 411.34C258.026 412.395 260.378 411.664 260.54 410.771C260.702 409.878 258.756 397.945 258.594 395.591C258.431 393.236 258.026 387.148 255.512 383.089C252.998 379.111 246.43 381.222 246.43 381.222Z" fill="#FFD1A9"/>
<path d="M260.702 410.852C260.702 410.852 257.62 410.122 257.539 410.041C257.458 409.959 257.377 409.797 256.971 409.959C256.566 410.122 256.404 410.771 255.998 411.015C255.593 411.258 253.16 412.07 251.782 412.882C251.295 413.125 249.268 414.1 248.944 414.749C248.7 415.398 248.781 416.454 252.43 416.048C255.998 415.642 260.053 415.967 260.783 415.48C261.594 414.993 260.945 411.908 260.702 410.852Z" fill="#00A9EA"/>
<path d="M243.024 411.583C243.024 411.583 240.186 410.203 240.105 410.122C240.024 410.04 240.024 409.797 239.619 409.959C239.213 410.04 238.889 410.69 238.483 410.771C238.078 410.933 235.402 411.177 233.942 411.664C233.375 411.826 231.185 412.232 230.78 412.882C230.375 413.531 230.293 414.505 233.942 414.83C237.591 415.155 241.403 416.372 242.214 416.129C243.024 415.804 243.106 412.638 243.024 411.583Z" fill="#00A9EA"/>
<path d="M272.46 368.314C272.46 368.314 248.62 373.591 246.43 381.222C246.43 381.222 250.728 380.004 254.945 382.358C254.945 382.358 266.135 382.439 277.163 382.439C278.542 382.439 288.272 379.679 286.813 371.48C285.272 363.2 272.46 368.314 272.46 368.314Z" fill="#00A9EA"/>
<path d="M276.514 335.111C276.838 335.436 277.163 335.923 277.487 336.41C277.73 336.897 277.974 337.384 278.136 337.872C278.541 338.927 278.784 339.82 278.784 339.82C278.784 339.82 284.461 336.816 283.082 335.68C281.704 334.543 281.136 330.159 281.136 330.159C281.136 330.159 275.379 334.056 276.514 335.111Z" fill="#FFD1A9"/>
<path d="M269.946 324.477C269.946 324.477 268.811 326.263 270.514 329.916C270.514 329.916 271 333.082 270.676 333.732C270.351 334.381 272.135 334.138 272.46 334.462C272.784 334.787 273.595 336.492 275.136 337.222C276.676 337.953 281.704 333.001 281.461 331.134C281.217 329.186 283.163 320.093 276.514 321.555C269.865 323.016 269.946 324.477 269.946 324.477Z" fill="#FFD1A9"/>
<path d="M269.946 328.536C269.946 328.536 266.946 320.742 275.136 320.012C283.245 319.281 281.704 329.104 281.461 332.27C281.461 332.27 280.326 327.805 276.595 328.698C272.865 329.591 271.811 328.942 269.946 328.536Z" fill="#3A3F47"/>
<path d="M276.919 327.399C277.163 326.425 278.866 326.425 279.028 327.724C279.19 329.023 278.217 330.565 277.649 330.159C277.082 329.672 276.514 328.86 276.919 327.399Z" fill="#EEA886"/>
<path d="M277.487 336.41C277.73 336.897 277.973 337.384 278.136 337.871C279.919 336.41 280.568 333.244 280.568 333.244C279.514 334.868 277.487 336.41 277.487 336.41Z" fill="#A77860"/>
<path d="M277.974 338.927C277.974 338.927 273.028 344.609 272.379 345.097C271.73 345.584 269.865 349.643 272.379 352.078C272.379 352.078 272.622 354.676 273.028 355.65C273.514 356.624 273.19 366.853 272.46 368.07C271.73 369.207 281.947 373.185 286.894 371.561C286.894 371.561 285.515 364.986 285.029 361.657C284.542 358.329 286.569 348.587 286.651 345.989C286.732 343.392 284.867 336.735 283.083 336.004C281.299 335.111 277.974 338.927 277.974 338.927Z" fill="#00315A"/>
<path d="M269.977 367.928L251.901 373.962L252.26 375.04L270.336 369.006L269.977 367.928Z" fill="#6E6760"/>
<path d="M253.057 374.107L237.829 362.637L237.147 363.545L252.374 375.015L253.057 374.107Z" fill="#6E6760"/>
<path d="M256.891 372.373C256.729 371.967 256.729 371.317 257.864 370.506C258.999 369.613 261.594 367.258 262.567 367.015C263.54 366.852 264.27 367.258 264.675 367.177C265.081 367.096 265.567 369.45 265.567 369.45L256.891 372.373Z" fill="#FFD1A9"/>
<path d="M264.675 367.178C264.675 367.178 269.784 365.067 270.676 364.661C271.568 364.255 275.784 362.794 276.109 362.55C276.433 362.388 278.379 352.484 278.541 349.967C278.703 347.37 278.866 342.012 281.704 342.255C284.623 342.499 285.272 344.366 284.947 348.1C284.623 351.835 282.434 365.229 281.542 365.635C280.65 366.122 269.946 368.233 264.837 369.694C259.647 371.237 264.675 367.178 264.675 367.178Z" fill="#FFD1A9"/>
<path d="M280.406 322.122C280.406 322.122 281.623 324.314 281.542 326.019C281.542 326.019 282.677 323.502 280.406 322.122Z" fill="#5F8CC9"/>
<path d="M500.563 229.658V358.166C500.563 361.576 497.806 364.336 494.401 364.336H399.283C395.877 364.336 393.12 361.576 393.12 358.166V229.658C393.12 226.249 395.877 223.489 399.283 223.489H494.401C497.806 223.407 500.563 226.249 500.563 229.658Z" fill="#FFF3E1"/>
<path d="M137.608 33.6897V162.198C137.608 165.607 134.851 168.368 131.446 168.368H36.2468C32.841 168.368 30.084 165.607 30.084 162.198V33.6897C30.084 30.2801 32.841 27.52 36.2468 27.52H131.364C134.851 27.52 137.608 30.2801 137.608 33.6897Z" fill="#CDF1F9"/>
<path d="M458.479 277.473H397.175C394.824 277.473 392.958 275.606 392.958 273.252V237.533C392.958 235.179 394.824 233.312 397.175 233.312H458.479C460.83 233.312 462.695 235.179 462.695 237.533V273.252C462.695 275.606 460.83 277.473 458.479 277.473Z" fill="#F7CA8F"/>
<path d="M79.6293 82.8846H53.1942C50.8426 82.8846 48.9775 81.0175 48.9775 78.6633V48.789C48.9775 46.4348 50.8426 44.5676 53.1942 44.5676H79.6293C81.9808 44.5676 83.8459 46.4348 83.8459 48.789V78.6633C83.8459 80.9363 81.9808 82.8846 79.6293 82.8846Z" fill="#00A9EA"/>
<path d="M77.1965 162.522C78.8994 163.091 80.7645 163.415 82.6295 163.415C88.3869 163.496 93.4955 160.817 96.8201 156.596C99.0906 153.674 100.469 150.021 100.469 146.043C100.469 145.637 100.469 145.231 100.469 144.825C100.388 143.039 99.9826 141.334 99.415 139.792C96.9823 133.135 90.5763 128.264 83.035 128.183C78.9805 128.102 75.2504 129.482 72.169 131.755C67.9524 134.921 65.1953 139.954 65.1143 145.637C65.1143 153.43 70.1418 160.168 77.1965 162.522ZM69.6553 145.637C69.7363 141.415 71.7636 137.681 74.845 135.327C77.1155 133.622 79.9536 132.567 83.035 132.648C88.7112 132.729 93.4955 136.301 95.2795 141.334C95.6849 142.552 96.0093 143.77 96.0093 145.15C96.0093 145.474 96.0093 145.718 96.0093 146.043C96.0093 149.046 94.9551 151.806 93.2522 153.998C90.8195 157.164 86.9273 159.194 82.6295 159.113C81.1699 159.113 79.8725 158.869 78.5751 158.382C73.3854 156.596 69.5742 151.563 69.6553 145.637Z" fill="#94F0FF"/>
<path d="M93.333 153.917L96.8199 156.596C93.5763 160.817 88.3866 163.496 82.6293 163.415C80.7642 163.415 78.8992 163.09 77.1963 162.522L78.5748 158.301C79.8722 158.707 81.2508 158.95 82.6293 159.031C87.0081 159.112 90.9004 157.083 93.333 153.917Z" fill="#00A9EA"/>
<path d="M96.009 145.475C97.4686 145.393 99.0093 145.312 100.469 145.312C100.469 145.637 100.469 146.043 100.469 146.53C100.388 149.128 99.7391 151.157 99.4958 151.644C98.6849 153.917 97.5496 155.541 96.7388 156.677L93.333 154.08C94.9548 151.969 96.009 149.29 96.009 146.368C96.009 146.043 96.009 145.718 96.009 145.475Z" fill="#1AC9FF"/>
<path d="M96.0091 145.474C96.0091 144.744 95.928 143.851 95.7658 142.795C95.6036 142.227 95.5225 141.74 95.3604 141.334L99.4959 139.792C99.7392 140.36 99.9014 141.009 100.064 141.659C100.388 143.039 100.55 144.257 100.55 145.231C99.0094 145.312 97.4687 145.393 96.0091 145.474Z" fill="#1AC9FF"/>
<path d="M72.25 131.755C75.2503 129.482 78.9804 128.183 83.116 128.183C90.6572 128.265 97.0633 133.135 99.496 139.792L95.3604 141.335C93.5765 136.301 88.7922 132.729 83.116 132.648C80.0346 132.648 77.1964 133.622 74.9259 135.327L72.25 131.755Z" fill="#71DEFF"/>
<path d="M264.756 115.601C263.459 110.161 261.351 105.128 258.675 100.42L265.162 90.8406L256.404 81.8296L247.647 72.8186L237.997 79.0695C233.375 76.2282 228.266 74.0363 222.914 72.6562L220.806 61.291L208.237 61.1287L195.668 60.9663L193.236 72.2503C187.803 73.5492 182.775 75.6599 178.072 78.3389L168.503 71.8444L159.503 80.6119L150.502 89.3793L156.745 99.0398C153.907 103.667 151.718 108.781 150.339 114.139L138.987 116.25L138.825 128.833L138.663 141.416L149.934 143.851C151.231 149.29 153.34 154.323 156.016 159.032L149.529 168.611L158.286 177.622L167.044 186.633L176.693 180.382C181.316 183.224 186.424 185.415 191.776 186.795L193.884 198.161L206.453 198.323L219.022 198.485L221.455 187.201C226.888 185.902 231.915 183.792 236.618 181.113L246.187 187.607L255.188 178.84L264.189 170.072L257.945 160.412C260.783 155.785 262.972 150.67 264.351 145.312L275.703 143.202L275.866 130.619L276.028 118.036L264.756 115.601ZM207.021 160.574C190.073 160.412 176.45 146.449 176.612 129.482C176.775 112.516 190.722 98.8774 207.67 99.0398C224.617 99.2021 238.24 113.165 238.078 130.132C237.916 147.098 224.05 160.737 207.021 160.574Z" fill="#00315A"/>
<path d="M76.5484 167.637C76.5484 167.637 77.5215 166.013 75.9808 161.548C74.5212 157.327 69.5748 157.652 67.953 160.412C66.3312 163.172 66.8988 164.877 69.2504 167.881C71.602 171.047 75.5754 169.017 76.5484 167.637Z" fill="#EEA886"/>
<path d="M65.0341 243.459C65.0341 243.459 64.7908 245.245 64.7908 245.57C64.7908 245.814 62.0338 245.408 62.0338 245.408L61.7905 243.216C61.7905 243.216 64.6287 243.216 65.0341 243.459Z" fill="#EEA886"/>
<path d="M64.7092 245.326C64.7092 245.326 65.6011 246.382 66.412 246.869C67.2229 247.356 68.5204 247.518 69.0069 248.005C69.3312 248.33 70.3043 249.872 66.8175 249.872C63.3307 249.872 61.7089 250.116 61.3034 249.467C60.898 248.898 61.871 245.164 61.871 245.164C61.871 245.164 62.763 245.408 64.7092 245.326Z" fill="#152B3D"/>
<path d="M83.7651 243.459C83.7651 243.459 83.5218 245.245 83.5218 245.57C83.5218 245.814 80.7647 245.408 80.7647 245.408L80.5215 243.216C80.5215 243.216 83.4407 243.216 83.7651 243.459Z" fill="#EEA886"/>
<path d="M83.5221 245.326C83.5221 245.326 84.4141 246.382 85.225 246.869C86.0359 247.356 89.1173 247.762 89.6038 248.249C89.9282 248.574 90.5769 250.035 85.7115 249.873C82.2247 249.791 80.6029 250.116 80.1975 249.467C79.792 248.898 80.7651 245.164 80.7651 245.164C80.7651 245.164 81.8192 245.326 83.5221 245.326Z" fill="#152B3D"/>
<path d="M65.9256 198.404C65.9256 198.404 64.547 202.707 64.7092 206.441C64.8714 210.175 63.9794 214.234 63.6551 218.131C63.2496 222.433 61.5467 232.743 61.4657 235.097C61.3846 237.452 61.7089 244.839 61.7089 244.839L65.1147 244.92C65.1147 244.92 67.9528 226.979 68.6826 225.112C69.4124 223.245 73.0614 210.175 73.1425 208.714C73.2236 207.253 65.9256 198.404 65.9256 198.404Z" fill="#455A64"/>
<path d="M79.8726 197.918C79.8726 197.918 81.8999 209.364 82.1431 211.637C82.3864 213.91 82.5486 222.677 82.7108 224.139C82.8729 225.6 83.5217 242.81 84.1704 244.921H80.4403C80.4403 244.921 76.548 232.419 76.548 226.493C76.548 220.567 74.0342 213.585 72.3313 209.689C70.7096 205.792 66.8984 205.711 65.9253 198.405C65.9253 198.405 78.4941 195.645 79.8726 197.918Z" fill="#455A64"/>
<path d="M75.1703 168.773C75.1703 168.773 74.7648 169.991 75.1703 170.884C75.5757 171.777 69.7373 171.209 69.7373 171.209C69.7373 171.209 69.9806 169.423 69.2508 167.88C68.521 166.419 75.1703 168.773 75.1703 168.773Z" fill="#EEA886"/>
<path d="M65.6011 199.297C65.6011 199.297 67.7094 201.489 80.035 198.972L79.8728 197.917L65.8443 198.485L65.6011 199.297Z" fill="#37474F"/>
<path d="M76.0614 171.209C76.0614 171.209 78.2508 171.452 78.8184 171.533C79.4671 171.615 83.6027 170.803 84.4136 170.722C85.2245 170.641 88.8735 168.124 89.0357 167.88C89.1168 167.556 91.2251 162.279 91.3872 161.142C91.4683 160.006 93.4145 160.574 93.2523 161.386C92.9279 162.847 92.5225 166.419 92.3603 167.474C92.1171 168.611 91.4683 171.128 91.144 171.452C90.8196 171.777 87.495 174.212 84.3325 175.268C81.17 176.323 78.7373 177.866 78.7373 177.866H62.9249C62.9249 177.866 56.7622 169.098 56.6811 167.799C56.5189 166.5 60.9788 157.733 61.8708 156.596C62.7628 155.46 64.0602 156.921 64.0602 156.921C64.0602 156.921 61.3842 164.633 61.0599 165.77C60.7355 166.906 64.1413 171.696 65.0333 171.696C66.0063 171.696 68.3579 171.371 69.4121 171.371C70.4662 171.29 71.6015 170.884 71.6015 170.884L76.0614 171.209Z" fill="#EEA886"/>
<path d="M82.8731 177.054C82.8731 177.054 80.9269 178.353 80.7648 180.545C80.6026 182.737 79.8728 186.227 79.5484 187.445C79.2241 188.663 79.8728 197.268 79.9539 197.917C80.035 198.567 67.7905 200.028 65.8443 198.567C65.8443 198.567 65.2767 190.53 65.1145 188.257C64.8713 185.984 63.8171 180.382 63.4928 179.652C63.1684 178.921 58.8707 172.914 58.7085 172.102C58.7085 172.102 60.8979 168.611 62.5197 168.53C62.5197 168.53 65.0335 171.453 65.8443 171.615C66.6552 171.777 71.6828 170.803 71.6828 170.803C71.6828 170.803 72.2504 171.534 75.1696 170.641C75.1696 170.641 78.6564 171.047 79.2241 171.128C79.8728 171.209 84.657 170.56 84.657 170.56C84.657 170.56 86.6032 173.807 86.1977 175.43L82.8731 177.054Z" fill="#254380"/>
<path d="M91.3065 161.792C91.3065 161.792 91.7119 159.763 91.2254 159.194C90.9011 158.87 90.2523 157.977 90.1712 157.814C90.0902 157.652 89.3604 157.246 89.3604 157.003C89.3604 156.759 90.0902 156.516 90.7389 157.165C91.3876 157.733 91.793 157.896 92.0363 157.814C92.2796 157.733 92.685 155.623 92.685 155.054C92.685 154.486 92.9283 153.106 93.2526 153.187C93.577 153.268 93.577 153.918 93.577 153.918C93.577 153.918 93.9824 152.862 94.2257 153.025C94.469 153.268 94.469 153.755 94.469 153.755C94.469 153.755 94.9555 153.187 95.1177 153.593C95.2799 153.999 95.1177 154.405 95.1177 154.405C95.1177 154.405 95.6042 154.161 95.6853 154.811C95.6853 155.46 95.5231 157.49 95.1988 158.22C94.8744 158.951 93.4959 160.818 93.3337 161.549C93.0905 162.279 91.3065 161.792 91.3065 161.792Z" fill="#EEA886"/>
<path d="M63.5735 158.22C63.5735 158.22 65.0331 155.785 65.5197 155.541C66.0062 155.297 66.736 155.216 67.3036 154.729C67.9524 154.323 68.7633 153.917 68.6822 153.755C68.6011 153.593 67.9524 153.674 67.1415 153.999C66.3306 154.323 66.0062 154.161 65.9251 153.999C65.844 153.836 66.3306 152.618 66.5738 152.294C66.8171 151.969 68.52 150.345 68.1956 150.102C67.9524 149.858 66.8171 150.751 66.6549 150.995C66.6549 150.995 67.5469 149.209 67.2226 149.047C66.8982 148.965 66.2495 149.615 66.2495 149.615C66.2495 149.615 66.3306 148.072 64.6277 150.589C64.6277 150.589 64.9521 149.777 64.4655 150.021C63.979 150.264 63.4924 151.888 63.3303 152.7C63.1681 153.511 62.4383 156.028 61.7896 156.596C61.2219 157.165 63.5735 158.22 63.5735 158.22Z" fill="#EEA886"/>
<path d="M69.3313 167.961C69.3313 167.961 70.1422 168.043 71.764 167.474C73.3858 166.906 73.5479 164.065 73.8723 164.389C74.6021 165.12 75.2508 164.633 75.5752 164.227C75.5752 164.227 74.7643 163.172 75.1697 162.685C75.5752 162.198 76.1428 161.792 76.1428 161.792C76.1428 161.792 75.0076 156.19 69.7368 158.788C63.4929 161.629 69.3313 167.961 69.3313 167.961Z" fill="#353A3D"/>
<path d="M75.1698 170.884L75.0076 170.072C75.0076 170.072 71.683 169.991 69.8179 170.235L69.6558 171.209C69.6558 171.29 72.0073 172.345 75.1698 170.884Z" fill="#254380"/>
<path d="M74.3589 163.659C74.0345 163.172 72.8993 162.847 72.8182 164.227C72.7371 165.364 74.8454 166.582 74.8454 165.526C74.8454 164.471 74.6022 163.984 74.3589 163.659Z" fill="#EEA886"/>
<path d="M91.3873 161.305C91.3873 161.305 92.6036 161.305 93.1712 161.873C93.1712 161.873 93.1712 162.198 93.0902 162.441C93.0902 162.441 92.036 161.954 91.2251 161.873C91.2251 161.954 91.2251 161.467 91.3873 161.305Z" fill="#E55353"/>
<path d="M92.4815 162.338C92.729 162.234 92.845 161.948 92.7405 161.7C92.636 161.452 92.3506 161.336 92.103 161.441C91.8555 161.546 91.7395 161.831 91.844 162.079C91.9485 162.327 92.2339 162.443 92.4815 162.338Z" fill="#353A3D"/>
<path d="M58.3843 250.36H91.2254L80.846 282.263L81.819 282.588L92.6039 249.385H57.5734L46.9507 282.263L47.9238 282.588L58.3843 250.36Z" fill="#FCBA59"/>
<path d="M69.5743 282.263L59.1949 250.36H92.036L102.497 282.588L103.47 282.263L92.7659 249.385H57.8164L68.6013 282.588L69.5743 282.263Z" fill="#FCBA59"/>
<path d="M95.5235 259.37H55.3032V260.426H95.5235V259.37Z" fill="#FCBA59"/>
<path d="M99.3345 270.492H51.1675V271.548H99.3345V270.492Z" fill="#FCBA59"/>
<path d="M236.213 185.416C237.024 174.943 237.51 165.121 237.835 155.947C235.321 154.567 232.239 153.025 229.807 151.888C222.265 148.316 211.805 143.446 205.075 140.361C201.101 138.575 197.29 137.195 197.29 137.195C197.29 137.195 170.368 134.597 168.179 134.759C167.53 134.759 164.124 135.977 159.746 137.682C150.177 141.335 131.77 148.722 128.851 150.833C124.553 153.918 109.146 229.415 108.741 234.53C108.335 239.482 129.662 246.301 149.366 251.577C149.366 259.208 149.204 269.924 149.042 279.747C149.042 281.452 148.961 283.075 148.961 284.618H235.321C235.24 282.913 235.078 281.289 234.996 279.747C234.996 279.503 234.996 279.341 234.996 279.098C234.672 272.441 233.375 260.588 233.699 249.061C233.699 249.061 233.456 236.884 234.672 231.607C234.834 208.39 236.213 185.416 236.213 185.416ZM126.661 229.821C126.823 219.998 139.879 201.733 139.879 201.733C139.879 201.733 140.446 201.489 140.528 201.489L141.176 201.408L143.203 199.46C143.69 201.246 147.988 225.925 149.042 240.293C136.797 237.858 126.58 234.53 126.661 229.821Z" fill="#CDF1F9"/>
<path d="M237.835 279.665C237.267 275.606 236.699 271.466 236.213 267.488C236.213 267.488 236.213 267.488 236.213 267.407C236.051 266.108 235.889 264.728 235.726 263.429C235.726 263.348 235.726 263.267 235.726 263.186C235.078 257.666 234.591 252.389 234.186 247.518C233.861 243.784 234.186 240.212 234.672 236.64C236.213 211.88 236.943 185.74 236.943 185.74C237.754 175.024 238.159 165.039 238.483 155.703C238.483 155.703 204.669 139.711 201.588 138.818C201.588 138.818 207.994 153.917 212.778 187.607C214.643 200.515 218.049 222.352 220.563 244.596C221.941 256.61 224.455 268.787 226.32 279.665C226.644 281.37 226.888 282.994 227.131 284.536H238.483C238.24 282.913 237.997 281.289 237.835 279.665Z" fill="#00A9EA"/>
<path d="M181.478 239.887C182.775 227.385 183.992 214.883 183.424 207.983C178.802 152.943 165.584 138.331 163.638 136.22C162.179 136.788 156.502 138.899 154.88 139.548C145.88 143.12 127.472 149.615 124.959 151.401C120.661 154.485 103.713 233.636 103.227 238.75C102.902 242.241 125.04 249.466 147.582 255.879C147.339 262.049 145.961 270.573 143.852 279.665C143.528 281.289 143.123 282.912 142.717 284.536H176.369C176.531 282.912 176.775 281.289 176.937 279.665C177.504 274.713 178.153 269.68 178.802 264.322C188.208 266.758 194.614 268.3 194.614 268.3C194.614 268.3 203.453 253.282 206.048 247.193C206.534 246.219 195.182 243.54 181.478 239.887ZM137.122 220.728C136.798 209.444 140.609 201.732 140.609 201.732C141.744 205.629 143.285 216.669 144.663 227.629C140.041 225.356 137.122 223.001 137.122 220.728Z" fill="#00A9EA"/>
<path d="M166.72 135.652C166.72 135.652 170.125 129.157 169.233 110.811C168.99 105.696 195.993 122.907 195.993 122.907C195.993 122.907 195.912 124.692 195.831 127.047C195.831 128.021 195.75 129.076 195.75 130.213C195.75 130.537 195.75 130.862 195.75 131.106C195.75 131.593 195.75 132.08 195.75 132.567C195.75 133.216 195.75 133.785 195.831 134.353C195.831 135.002 195.912 135.652 195.993 136.22C196.074 137.357 196.723 139.305 196.966 139.792C198.182 142.714 176.856 142.877 166.72 135.652Z" fill="#FFD1A9"/>
<path d="M189.343 147.342L194.29 153.999C194.29 153.999 191.37 157.895 186.181 155.054L189.343 147.342Z" fill="#FFBC5A"/>
<path d="M192.992 154.323C192.992 154.323 211.237 198.891 207.345 255.474L201.587 265.946L195.1 257.016C195.1 257.016 194.046 181.843 188.856 154.08L192.992 154.323Z" fill="#FFBC5A"/>
<path d="M194.695 141.091L189.343 147.342C189.343 147.342 180.829 145.718 178.315 141.253C175.801 136.789 194.695 141.091 194.695 141.091Z" fill="#FFD1A9"/>
<path d="M195.911 135.652C195.911 135.652 195.263 140.442 189.343 147.342L195.83 156.028L199.317 138.006L195.911 135.652Z" fill="#C4C1CC"/>
<path d="M168.342 129.969C168.342 129.969 180.667 143.932 189.344 147.423L185.289 157.408L165.584 135.652L168.342 129.969Z" fill="#FFD1A9"/>
<path d="M295.408 256.61C295.408 256.61 279.028 240.699 268.243 238.02C263.296 236.802 256.728 229.902 250.484 221.865C248.457 219.186 246.43 216.426 244.484 213.666C236.861 202.626 230.861 192.072 230.861 192.072C230.861 192.072 208.318 165.608 226.401 153.755C226.401 153.755 234.185 153.593 238.402 155.866C242.781 158.22 252.106 177.785 253.728 181.194C255.35 184.685 272.459 216.751 273.595 217.482C274.73 218.212 276.676 220.81 283.488 224.544C291.921 229.09 305.138 242.323 305.138 242.323L295.408 256.61Z" fill="#00A9EA"/>
<path d="M216.67 275.038C216.67 275.038 214.4 274.957 213.427 274.389C213.427 274.389 211.724 273.252 210.427 272.603C210.021 272.359 209.697 272.197 209.454 272.116C208.48 271.71 206.129 271.141 203.939 269.518C201.75 267.894 194.776 261.319 194.776 261.319L199.317 254.337L201.426 247.437C201.426 247.437 217.806 249.06 219.995 250.359C220.238 250.522 220.401 250.603 220.563 250.765C222.347 252.064 223.077 253.769 223.887 254.499C224.212 254.824 227.05 257.828 226.888 259.127C226.644 260.832 225.834 261.968 224.779 262.455C224.779 262.455 224.212 265.783 222.509 267.326C222.509 267.326 222.103 270.411 219.428 271.71C219.346 271.547 218.536 274.632 216.67 275.038Z" fill="#FFD1A9"/>
<path d="M190.56 63.3208C190.56 63.3208 220.239 56.1769 213.995 93.7633C207.751 131.35 200.615 134.353 182.613 126.885C164.53 119.416 165.828 95.3869 164.774 83.6158C163.557 71.8447 181.072 63.889 190.56 63.3208Z" fill="#FFD1A9"/>
<path d="M174.991 89.3796C174.585 86.0512 168.017 84.9959 167.53 89.9479C167.044 94.8998 170.693 103.586 173.126 102.693C175.639 101.719 175.558 93.9257 174.991 89.3796Z" fill="#FFD1A9"/>
<path d="M166.395 102.855C166.395 102.855 166.963 91.0027 171.26 90.5968C175.558 90.1909 176.288 94.8993 176.288 94.8993L180.667 95.63C180.667 95.63 179.126 85.3201 183.424 83.4529C187.722 81.5858 211.4 88.7296 214.805 85.6448C218.211 82.56 216.265 61.6155 210.021 58.7742C203.696 56.0141 186.424 49.8444 173.855 58.5306C173.855 58.5306 163.962 57.5565 162.665 65.5121C161.286 73.549 163.638 96.9288 166.395 102.855Z" fill="#16202E"/>
<path d="M206.94 247.275L194.695 268.3C194.695 268.3 162.26 259.939 154.718 257.828L171.99 237.208C171.99 237.29 197.533 243.053 206.94 247.275Z" fill="#00A9EA"/>
<path d="M195.83 134.434C179.937 132.811 173.774 120.552 173.774 120.552C183.748 130.456 195.749 130.213 195.749 130.213C195.749 130.538 195.749 130.862 195.749 131.106C195.749 131.593 195.749 132.08 195.749 132.567C195.749 133.217 195.749 133.785 195.83 134.434Z" fill="#A77860"/>
<path d="M461.398 354.676C463.101 355.244 464.966 355.569 466.831 355.569C472.588 355.65 477.697 352.971 481.021 348.75C483.292 345.827 484.67 342.174 484.67 338.197C484.67 337.791 484.67 337.385 484.67 336.979C484.589 335.193 484.184 333.488 483.616 331.946C481.184 325.289 474.777 320.418 467.236 320.337C463.182 320.256 459.452 321.636 456.37 323.909C452.154 327.075 449.397 332.108 449.315 337.791C449.315 345.584 454.343 352.322 461.398 354.676ZM453.856 337.791C453.938 333.569 455.965 329.835 459.046 327.481C461.317 325.776 464.155 324.721 467.236 324.802C472.912 324.883 477.697 328.455 479.481 333.488C479.886 334.706 480.21 335.923 480.21 337.304C480.21 337.628 480.21 337.872 480.21 338.197C480.21 341.2 479.156 343.96 477.453 346.152C475.021 349.318 471.128 351.348 466.831 351.267C465.371 351.267 464.074 351.023 462.776 350.536C457.505 348.75 453.775 343.717 453.856 337.791Z" fill="#FCE6CD"/>
<path d="M477.453 346.071L480.94 348.75C477.696 352.971 472.507 355.65 466.749 355.569C464.884 355.569 463.019 355.244 461.316 354.676L462.695 350.455C463.992 350.86 465.371 351.104 466.749 351.185C471.209 351.266 475.02 349.237 477.453 346.071Z" fill="#FFC166"/>
<path d="M480.211 337.304L484.5 337C484.5 337.405 484.589 337.872 484.589 338.278C484.508 342.256 483.13 345.909 480.94 348.831L477.454 346.152C479.156 343.96 480.211 341.2 480.211 338.197C480.292 337.872 480.292 337.547 480.211 337.304Z" fill="#FDB449"/>
<path d="M480.211 337.303C480.13 336.005 479.886 334.706 479.481 333.488L483.617 331.946C484.184 333.569 484.59 335.274 484.671 336.979L480.211 337.303Z" fill="#FDB449"/>
<path d="M456.451 323.909C459.451 321.636 463.182 320.337 467.317 320.337C474.858 320.418 481.264 325.289 483.697 331.946L479.562 333.488C477.778 328.455 472.993 324.883 467.317 324.802C464.236 324.802 461.398 325.776 459.127 327.481L456.451 323.909Z" fill="#FFE1B0"/>
<path d="M413.312 317.414C412.42 316.278 411.041 315.466 409.501 315.466C407.311 315.466 405.527 316.846 404.879 318.794C404.716 319.282 404.635 319.769 404.635 320.256C404.635 320.824 404.716 321.473 404.96 321.96C405.284 322.853 405.852 323.584 406.5 324.152C407.23 324.721 408.041 325.045 409.014 325.127C409.176 325.127 409.257 325.127 409.42 325.127C409.501 325.127 409.582 325.127 409.663 325.127H409.744C410.23 325.127 410.717 324.964 411.122 324.883C412.987 324.234 414.285 322.448 414.285 320.418C414.285 319.282 413.879 318.226 413.312 317.414ZM410.636 323.746C410.311 323.828 409.987 323.909 409.582 323.99C409.501 323.99 409.42 323.99 409.338 323.99C409.014 323.99 408.69 323.909 408.365 323.828C407.96 323.665 407.554 323.503 407.149 323.259C406.987 323.178 406.906 323.016 406.825 322.935C406.176 322.285 405.77 321.311 405.77 320.337C405.77 320.093 405.771 319.85 405.852 319.606C405.852 319.525 405.933 319.363 405.933 319.282C406.419 317.82 407.798 316.765 409.42 316.846C410.555 316.846 411.609 317.414 412.258 318.307C412.744 318.957 412.987 319.687 412.987 320.58C413.069 321.96 412.014 323.259 410.636 323.746Z" fill="#4DA8F2"/>
<path d="M482.4 247.193H476.724C475.507 247.193 474.453 246.219 474.453 244.92V239.238C474.453 238.02 475.426 236.965 476.724 236.965H482.4C483.616 236.965 484.67 237.939 484.67 239.238V244.92C484.589 246.138 483.616 247.193 482.4 247.193ZM476.724 237.37C475.751 237.37 474.859 238.182 474.859 239.238V244.92C474.859 245.894 475.67 246.787 476.724 246.787H482.4C483.373 246.787 484.265 245.976 484.265 244.92V239.238C484.265 238.263 483.454 237.37 482.4 237.37H476.724Z" fill="#F7CA8F"/>
<path d="M482.4 260.669H476.724C475.507 260.669 474.453 259.695 474.453 258.396V252.714C474.453 251.496 475.426 250.441 476.724 250.441H482.4C483.616 250.441 484.67 251.415 484.67 252.714V258.396C484.589 259.614 483.616 260.669 482.4 260.669ZM476.724 250.928C475.751 250.928 474.859 251.74 474.859 252.795V258.477C474.859 259.452 475.67 260.345 476.724 260.345H482.4C483.373 260.345 484.265 259.533 484.265 258.477V252.795C484.265 251.821 483.454 250.928 482.4 250.928H476.724Z" fill="#F7CA8F"/>
<path d="M482.724 273.902H476.318C475.426 273.902 474.615 273.171 474.615 272.197V265.865C474.615 264.972 475.345 264.16 476.318 264.16H482.643C483.535 264.16 484.345 264.891 484.345 265.865V272.197C484.427 273.171 483.616 273.902 482.724 273.902Z" fill="#F7CA8F"/>
<path d="M479.237 271.223L476.805 269.112C476.643 268.95 476.561 268.625 476.724 268.463C476.886 268.3 477.21 268.219 477.372 268.382L479.075 269.924L481.589 267.164C481.751 267.002 482.076 266.92 482.238 267.164C482.4 267.326 482.481 267.651 482.238 267.813L479.237 271.223Z" fill="#F3F3F3"/>
<path d="M111.985 56.2575H106.552C105.335 56.2575 104.362 55.2833 104.362 54.0656V48.7077C104.362 47.49 105.335 46.5159 106.552 46.5159H111.985C113.201 46.5159 114.174 47.49 114.174 48.7077V54.1468C114.174 55.2833 113.201 56.2575 111.985 56.2575ZM106.633 46.9218C105.66 46.9218 104.849 47.7336 104.849 48.7077V54.1468C104.849 55.121 105.66 55.9328 106.633 55.9328H112.066C113.039 55.9328 113.85 55.121 113.85 54.1468V48.7077C113.85 47.7336 113.039 46.9218 112.066 46.9218H106.633Z" fill="#00A9EA"/>
<path d="M111.985 69.2469H106.552C105.335 69.2469 104.362 68.2727 104.362 67.055V61.6159C104.362 60.3982 105.335 59.4241 106.552 59.4241H111.985C113.201 59.4241 114.174 60.3982 114.174 61.6159V67.055C114.174 68.2727 113.201 69.2469 111.985 69.2469ZM106.633 59.9112C105.66 59.9112 104.849 60.723 104.849 61.6971V67.1362C104.849 68.1103 105.66 68.9221 106.633 68.9221H112.066C113.039 68.9221 113.85 68.1103 113.85 67.1362V61.6971C113.85 60.723 113.039 59.9112 112.066 59.9112H106.633Z" fill="#00A9EA"/>
<path d="M112.308 81.9103H106.308C105.416 81.9103 104.605 81.1797 104.605 80.2055V74.1982C104.605 73.3052 105.335 72.4934 106.308 72.4934H112.308C113.2 72.4934 114.011 73.224 114.011 74.1982V80.2055C114.011 81.1797 113.2 81.9103 112.308 81.9103Z" fill="#00A9EA"/>
<path d="M108.984 79.3127L106.632 77.2832C106.47 77.1208 106.389 76.7961 106.551 76.6337C106.713 76.4714 107.038 76.3902 107.2 76.5526L108.903 78.0138L111.254 75.3349C111.417 75.1725 111.741 75.0913 111.903 75.3349C112.065 75.4972 112.146 75.8219 111.903 75.9843L108.984 79.3127Z" fill="#F3F3F3"/>
<path d="M484.427 287.946V289.65C484.427 290.706 483.535 291.517 482.562 291.517H439.747C438.693 291.517 437.882 290.706 437.882 289.65V287.946C437.882 286.89 438.774 286.078 439.747 286.078H482.481C483.535 285.997 484.427 286.89 484.427 287.946Z" fill="#F7CA8F"/>
<path d="M484.427 297.687V299.392C484.427 300.447 483.535 301.259 482.562 301.259H439.747C438.693 301.259 437.882 300.366 437.882 299.392V297.687C437.882 296.632 438.774 295.82 439.747 295.82H482.481C483.535 295.82 484.427 296.632 484.427 297.687Z" fill="#F7CA8F"/>
<path d="M482.481 311.65H439.666C438.45 311.65 437.477 310.676 437.477 309.458V307.754C437.477 306.536 438.45 305.562 439.666 305.562H482.481C483.697 305.562 484.67 306.536 484.67 307.754V309.458C484.67 310.676 483.697 311.65 482.481 311.65ZM439.666 306.13C438.774 306.13 438.044 306.861 438.044 307.754V309.458C438.044 310.351 438.774 311.082 439.666 311.082H482.481C483.373 311.082 484.103 310.351 484.103 309.458V307.754C484.103 306.861 483.373 306.13 482.481 306.13H439.666Z" fill="#F7CA8F"/>
<path d="M107.2 99.2832V100.988C107.2 102.043 106.308 102.855 105.335 102.855H62.4388C61.3846 102.855 60.5737 102.043 60.5737 100.988V99.2832C60.5737 98.2278 61.4657 97.416 62.4388 97.416H105.254C106.308 97.416 107.2 98.2278 107.2 99.2832Z" fill="#00A9EA"/>
<path d="M107.2 109.106V110.811C107.2 111.866 106.308 112.678 105.335 112.678H62.4388C61.3846 112.678 60.5737 111.785 60.5737 110.811V109.106C60.5737 108.051 61.4657 107.239 62.4388 107.239H105.254C106.308 107.158 107.2 108.051 107.2 109.106Z" fill="#00A9EA"/>
<path d="M104.281 122.988H61.4658C60.2494 122.988 59.2764 122.014 59.2764 120.796V119.091C59.2764 117.874 60.2494 116.899 61.4658 116.899H104.281C105.497 116.899 106.47 117.874 106.47 119.091V120.796C106.47 122.014 105.497 122.988 104.281 122.988ZM61.4658 117.549C60.5738 117.549 59.844 118.279 59.844 119.172V120.877C59.844 121.77 60.5738 122.501 61.4658 122.501H104.281C105.173 122.501 105.903 121.77 105.903 120.877V119.172C105.903 118.279 105.173 117.549 104.281 117.549H61.4658Z" fill="#00A9EA"/>
<path d="M229.969 229.983C248.377 248.979 272.703 272.927 272.703 272.927L282.191 254.824C282.191 254.824 260.54 229.415 245.944 212.529C241.484 214.721 233.213 219.998 229.969 229.983Z" fill="#EEA886"/>
<path d="M218.535 255.555C218.535 255.555 223.482 257.99 224.779 259.045C226.076 260.101 231.347 264.079 232.564 264.972C233.861 265.865 230.617 268.543 221.292 264.484C211.967 260.344 218.535 255.555 218.535 255.555Z" fill="#EEA886"/>
<path d="M201.365 281.673H220.34V274.448H201.365V281.673Z" fill="#005087"/>
<path d="M419.799 194.994L435.611 169.504L427.502 173.319L419.799 194.994Z" fill="#FFBC5A"/>
<path d="M419.799 194.994L420.61 179.732L426.448 176.323L419.799 194.994Z" fill="#FFE1B0"/>
<path d="M432.043 175.349L434.071 178.028L419.799 194.995L432.043 175.349Z" fill="#ED9621"/>
<path d="M219.022 201.164L210.345 281.614H324.194L332.79 201.164H219.022Z" fill="#00315A"/>
<path d="M333.764 281.452H24.4082V286.322H333.764V281.452Z" fill="#00A9EA"/>
<path d="M347.954 269.924C347.954 269.924 321.438 291.599 332.142 310.839C342.764 330.078 349.657 314.41 349.657 314.41C349.657 314.41 357.604 317.495 347.224 293.953C342.278 282.994 347.954 269.924 347.954 269.924Z" fill="#BBD070"/>
<path d="M514.674 382.44H262.486V387.311H514.674V382.44Z" fill="#00315A"/>
<path d="M508.186 334.138C508.186 334.138 508.024 335.193 507.456 335.274C506.97 335.437 506.402 335.924 506.24 336.086C505.996 336.33 505.105 336.735 505.348 336.979C505.591 337.223 506.888 336.411 507.213 336.248C507.537 336.086 507.051 337.547 507.213 337.872C507.375 338.197 509.727 338.765 509.889 337.791C510.051 336.817 509.645 335.599 509.645 335.437C509.727 335.274 509.808 334.706 509.808 334.706L508.186 334.138Z" fill="#FFD1A9"/>
<path d="M507.213 337.628C507.213 337.628 506.808 340.713 506.97 340.956C507.132 341.2 507.294 341.2 507.294 340.875C507.375 340.55 507.7 337.871 507.7 337.871C507.7 337.871 507.862 341.606 507.943 341.849C508.024 342.012 508.348 342.012 508.348 341.849C508.348 341.687 508.43 337.953 508.43 337.953C508.43 337.953 508.592 341.443 508.754 341.606C508.835 341.768 509.159 341.687 509.159 341.443C509.159 341.2 509.159 337.953 509.159 337.953C509.159 337.953 509.484 340.469 509.646 340.55C509.727 340.632 510.051 340.632 509.97 339.982C509.889 339.333 509.808 337.79 509.808 337.79L507.213 337.628Z" fill="#FFD1A9"/>
<path d="M474.777 295.902C474.777 295.902 474.29 294.927 474.128 294.197C473.966 293.466 472.993 292.411 472.587 292.167C472.182 291.924 469.425 289.894 469.101 289.894C468.776 289.894 468.938 290.544 469.263 290.706C469.506 290.868 471.858 292.654 471.858 292.654C471.858 292.654 469.019 290.706 468.695 290.706C468.371 290.787 468.209 291.112 468.533 291.518C468.533 291.518 467.884 291.924 468.533 292.492L469.911 293.547C469.911 293.547 469.101 293.141 469.425 293.791C469.587 294.116 471.209 295.09 471.533 295.415C471.777 295.739 473.885 296.713 473.885 296.713L474.777 295.902Z" fill="#FFD1A9"/>
<path d="M491.4 383.251H490.671C490.671 383.251 490.914 380.572 490.265 380.572C489.616 380.572 487.995 382.764 487.022 383.089C486.048 383.413 481.102 383.738 481.102 382.764C481.102 381.871 482.967 381.465 483.616 381.222C484.183 380.978 487.103 378.137 487.67 377.812C488.157 377.487 489.049 375.782 489.049 375.782H491.725C491.725 375.782 492.049 377.244 492.211 378.38C492.292 378.786 492.292 379.192 492.292 379.436C492.292 380.41 491.4 383.251 491.4 383.251Z" fill="#FFD1A9"/>
<path d="M504.294 382.764H503.726V380.248C503.24 380.329 501.618 381.871 501.05 382.277C500.564 382.764 499.834 382.683 497.726 382.845C495.617 383.008 495.374 381.709 495.699 381.222C496.023 380.816 497.158 380.572 497.726 380.329C498.293 380.085 500.564 377.487 501.132 376.919C501.699 376.351 502.105 374.565 502.105 374.565L504.618 374.808C504.618 374.808 504.618 376.351 504.862 377.731C504.862 377.812 504.943 377.975 504.943 378.056C505.348 379.436 504.294 382.764 504.294 382.764Z" fill="#FFD1A9"/>
<path d="M497.807 299.96C497.807 299.96 499.023 302.558 498.374 304.669C498.374 304.669 502.104 304.182 502.267 303.695C502.348 303.289 501.78 299.311 502.267 298.093C502.591 296.876 497.807 299.96 497.807 299.96Z" fill="#EEA886"/>
<path d="M497.644 303.776C497.644 303.776 495.455 304.75 494.482 304.993C493.509 305.318 491.481 306.373 491.887 310.027C492.292 313.68 493.184 316.846 493.509 318.388C493.833 319.931 493.995 323.989 493.752 325.938C493.752 325.938 499.185 326.831 505.348 325.126C505.348 325.126 503.969 321.879 503.969 321.067C503.969 320.174 507.132 312.868 507.213 311.731C507.294 310.595 507.699 305.643 505.915 304.669C504.131 303.694 502.753 303.938 502.023 303.532C501.374 303.045 498.698 303.37 497.644 303.776Z" fill="#00A9EA"/>
<path d="M497.726 309.459C497.726 309.459 498.537 305.075 494.32 305.075C490.59 305.075 487.022 304.344 486.455 304.02C485.887 303.695 483.616 302.558 482.4 301.341C481.184 300.123 474.697 295.171 474.697 295.171L472.913 296.957C472.913 296.957 479.805 304.425 480.859 305.156C481.995 305.887 491.239 311.082 492.455 311.245C493.59 311.407 496.834 312.3 497.726 309.459Z" fill="#00A9EA"/>
<path d="M511.024 323.015C511.187 324.558 510.295 335.192 510.295 335.192L507.294 335.517C507.294 335.517 507.538 324.964 507.7 322.528C507.781 321.798 507.619 320.742 507.294 319.525C507.132 318.794 506.97 317.982 506.727 317.251C506.159 315.141 505.51 313.355 505.51 313.355C505.51 313.355 502.105 304.587 506.402 304.912C506.402 304.912 507.943 306.536 508.673 309.215C509.321 311.894 510.132 315.871 510.132 317.495C510.132 319.119 510.943 321.879 511.024 323.015Z" fill="#00A9EA"/>
<path d="M494.563 325.857C494.563 325.857 493.59 328.13 493.509 328.78C493.428 329.348 490.346 336.979 490.184 339.171C489.941 341.444 489.292 347.451 489.13 348.263C488.887 349.156 489.617 352.971 489.779 353.864C489.86 354.757 489.86 368.802 488.806 375.702C488.806 375.702 491.238 376.757 493.022 375.702C493.022 375.702 496.023 364.824 495.86 358.573C495.698 352.322 494.887 349.643 495.86 347.126C496.833 344.61 502.51 337.06 503.077 336.248C503.645 335.437 507.213 330.972 503.807 326.182C500.401 321.474 494.563 325.857 494.563 325.857Z" fill="#455A64"/>
<path d="M506.321 346.396C505.996 348.425 506.321 351.023 506.969 358.41C507.618 365.716 505.834 374.646 505.834 374.646C503.645 375.377 501.131 374.646 501.131 374.646C501.212 374.159 501.131 356.705 501.131 355.163C501.131 353.621 500.726 351.835 500.563 350.049C500.482 348.831 499.915 346.639 499.266 344.285C499.104 343.636 498.86 342.905 498.698 342.255C498.617 341.85 498.455 341.525 498.374 341.2C497.482 338.115 496.266 326.101 496.266 326.101C496.266 326.101 502.915 320.743 506.159 325.776C509.402 330.809 507.699 334.462 507.618 335.112C507.537 335.842 506.564 344.447 506.321 346.396Z" fill="#455A64"/>
<path d="M493.428 316.846C493.428 316.846 493.995 326.344 492.211 331.702C492.211 331.702 499.266 332.838 508.186 329.835C508.186 329.835 505.753 323.421 505.834 322.447C505.915 321.473 508.51 309.783 507.294 307.185C505.997 304.588 493.833 308.322 493.428 316.846Z" fill="#00A9EA"/>
<path d="M499.104 289.326C497.482 289.245 493.428 289.894 494.158 296.064C494.888 302.234 497.158 301.746 499.347 300.853C501.537 300.042 503.888 295.009 503.807 293.71C503.726 292.492 503.726 289.569 499.104 289.326Z" fill="#FFD1A9"/>
<path d="M494.158 293.303C494.158 293.303 496.104 295.414 497.969 295.82C497.969 295.82 499.509 298.174 502.023 298.661C502.023 298.661 506.807 293.303 502.185 289.975C497.644 286.565 493.995 291.436 494.158 293.303Z" fill="#353A3D"/>
<path d="M497.645 295.009C497.645 294.684 498.374 293.953 499.023 294.684C499.672 295.415 498.699 297.282 498.293 297.363C497.888 297.282 497.482 296.308 497.645 295.009Z" fill="#EEA886"/>
<path d="M503.483 335.598C503.402 335.68 500.077 343.067 499.266 344.366C499.104 343.716 498.861 342.986 498.699 342.336C498.699 342.336 503.402 335.761 503.483 335.598Z" fill="#37474F"/>
<path d="M507.456 312.056C507.456 312.056 507.7 316.765 507.294 319.606C507.132 318.875 506.97 318.063 506.727 317.333C506.727 317.17 507.375 312.787 507.456 312.056Z" fill="#00315A"/>
<path d="M500.402 288.92C500.402 288.92 505.997 288.758 505.186 298.418C504.537 305.806 507.294 309.459 506.889 310.514C506.484 311.569 505.186 313.355 502.267 311.732C499.348 310.108 500.402 302.396 498.78 299.068C497.239 295.739 494.645 293.547 494.645 293.547C494.645 293.547 495.131 287.946 500.402 288.92Z" fill="#353A3D"/>
<path d="M492.861 308.403C492.861 308.403 491.563 312.949 491.32 314.005C490.914 315.385 492.78 318.064 494.401 317.252C495.942 316.44 492.861 308.403 492.861 308.403Z" fill="#00A9EA"/>
<path d="M504.294 382.764H503.726V380.248C503.24 380.329 501.618 381.871 501.05 382.277C500.564 382.764 499.834 382.683 497.726 382.846C495.617 383.008 495.374 381.709 495.699 381.222C496.023 380.816 497.158 380.572 497.726 380.329C499.996 380.41 502.834 377.244 504.132 377.244C504.862 377.244 504.862 377.65 504.862 377.731C504.862 377.812 504.943 377.975 504.943 378.056C505.348 379.436 504.294 382.764 504.294 382.764Z" fill="#FFBC5A"/>
<path d="M491.4 383.251H490.671C490.671 383.251 490.914 380.573 490.265 380.573C489.616 380.573 487.995 382.764 487.022 383.089C486.048 383.414 481.102 383.739 481.102 382.764C481.102 381.871 482.967 381.466 483.616 381.222C485.643 381.222 488.968 378.949 490.022 378.543C491.076 378.056 492.13 378.381 492.13 378.381C492.211 378.787 492.211 379.192 492.211 379.436C492.292 380.41 491.4 383.251 491.4 383.251Z" fill="#FFBC5A"/>
<path d="M308.22 52.1986C308.22 52.1986 305.706 53.4163 306.274 56.8259C306.923 60.2355 307.166 60.6414 306.517 62.0214C305.787 63.3203 304.977 69.0029 305.625 70.0583C306.274 71.1136 313.491 65.3498 314.464 60.479C315.437 55.6082 313.815 53.4975 313.248 52.6857C312.68 51.8739 310.491 51.0621 308.22 52.1986Z" fill="#0E2D3D"/>
<path d="M277.964 242.718C278.878 238.237 276.774 234.023 273.264 233.305C269.753 232.587 266.166 235.637 265.252 240.118C264.337 244.599 266.441 248.813 269.952 249.531C273.462 250.249 277.049 247.199 277.964 242.718Z" fill="#01406B"/>
<path d="M271.486 26.9521H303.598V50.332V55.2028L298.732 50.332H271.486V26.9521Z" fill="#CDF1F9"/>
<path d="M307.166 124.449C307.166 124.449 306.922 125.098 306.436 125.666C306.112 126.153 304.976 128.021 304.49 128.183C304.003 128.345 302.463 128.589 302.381 129.401C302.219 130.212 302.219 130.862 303.679 130.943C305.139 131.024 306.112 131.105 306.841 130.05C307.571 128.995 308.706 128.264 308.706 128.264V131.024H309.274C309.274 131.024 309.517 128.183 309.68 128.021C309.842 127.858 310.247 125.666 308.869 124.53C307.409 123.312 307.166 124.449 307.166 124.449Z" fill="#163342"/>
<path d="M304.49 128.265C304.49 128.265 305.787 128.59 306.355 128.265C306.841 127.94 308.625 125.018 309.193 124.774C309.193 124.774 308.625 123.638 307.247 124.449C307.166 124.449 304.814 127.778 304.49 128.265Z" fill="#EEA886"/>
<path d="M291.435 77.9331C291.435 77.9331 290.543 78.0954 290.218 77.6895C289.975 77.2836 289.326 77.0401 289.164 76.9589C288.921 76.8777 288.272 76.2283 288.11 76.4718C287.948 76.7965 289.083 77.6083 289.326 77.8519C289.57 78.0954 288.191 78.1766 287.948 78.339C287.705 78.5825 288.029 80.7744 288.921 80.612C289.813 80.4496 290.705 79.6378 290.867 79.6378C291.029 79.6378 291.516 79.5567 291.516 79.5567L291.435 77.9331Z" fill="#FFD1A9"/>
<path d="M288.11 78.2576C288.11 78.2576 285.353 78.9882 285.191 79.1505C285.029 79.3129 285.11 79.4753 285.353 79.4753C285.596 79.3941 288.029 78.8258 288.029 78.8258C288.029 78.8258 284.866 80.2059 284.704 80.3683C284.623 80.4494 284.704 80.7742 284.866 80.693C285.029 80.693 288.191 79.4753 288.191 79.4753C288.191 79.4753 285.272 80.7741 285.191 80.9365C285.11 81.0989 285.272 81.3424 285.434 81.2612C285.677 81.1801 288.434 80.1247 288.434 80.1247C288.434 80.1247 286.407 81.1801 286.326 81.4236C286.326 81.5048 286.407 81.7483 286.894 81.5048C287.38 81.1801 288.759 80.6118 288.759 80.6118L288.11 78.2576Z" fill="#FFD1A9"/>
<path d="M314.626 126.235C314.626 126.235 313.167 128.427 312.518 128.995C312.518 128.995 311.22 129.482 311.058 130.456C310.896 131.43 310.977 131.999 312.518 132.08C314.059 132.161 315.113 131.836 315.437 130.862C315.761 129.888 316.329 129.239 316.329 129.239V131.268H316.653C316.653 131.268 316.735 129.32 316.735 128.995C316.735 128.67 316.978 127.29 316.248 126.641C315.599 125.991 314.626 126.235 314.626 126.235Z" fill="#163342"/>
<path d="M315.599 83.5339C315.599 83.5339 317.464 85.9693 317.951 88.8918C318.437 91.8143 317.626 101.556 317.708 103.017C317.708 104.478 319.086 108.05 318.762 110.729C318.518 113.408 317.464 126.884 317.464 126.884L314.545 126.316C314.545 126.316 314.707 112.596 314.545 111.46C314.383 110.323 314.058 106.183 313.977 105.696C313.896 105.209 309.761 92.9508 309.761 90.8402C309.842 88.7295 311.058 80.1244 315.599 83.5339Z" fill="#254380"/>
<path d="M306.193 84.5089C306.193 84.5089 303.112 96.28 302.706 97.9848C302.301 99.6084 301.814 100.988 301.814 101.638C301.814 103.261 302.382 105.859 302.382 105.859L306.274 124.612H310.004C310.004 124.612 307.896 113.328 307.896 111.136C307.815 108.944 306.112 105.778 306.437 104.885C306.761 103.911 311.788 93.1952 311.788 93.1952C311.788 93.1952 315.681 81.0181 306.193 84.5089Z" fill="#254380"/>
<path d="M312.518 128.995C312.518 128.995 314.058 129.888 315.031 128.752C315.842 127.859 316.329 126.56 316.329 126.56L314.626 126.235L312.518 128.995Z" fill="#EEA886"/>
<path d="M307.409 64.3755C307.409 64.3755 306.112 64.4567 305.139 65.512C304.166 66.5673 303.274 68.1909 303.031 68.7592C302.787 69.3275 299.219 74.4418 299.057 74.523C298.895 74.6042 297.111 75.2536 295.895 75.6595C294.111 76.309 290.462 77.6078 290.462 77.6078L291.192 79.8809C291.192 79.8809 298.003 77.6078 299.787 77.2019C301.895 76.7149 306.68 70.464 306.68 70.464C306.68 70.464 310.329 66.3238 307.409 64.3755Z" fill="#02A1D1"/>
<path d="M309.68 63.4825C309.68 63.4825 308.058 64.2943 307.491 64.3755C306.923 64.4567 304.733 67.3792 304.328 68.4345C303.923 69.4899 304.328 71.1135 305.139 72.8994C305.95 74.7666 305.22 75.416 305.544 77.202C305.95 79.0691 305.788 86.0506 305.707 87.0248C305.625 88.0801 316.41 89.6225 318.6 87.7554C318.6 87.7554 317.14 81.5045 315.437 79.7186C315.032 79.3127 315.113 76.7149 315.356 76.1466C315.599 75.4972 318.438 70.7076 318.438 70.7076C318.438 70.7076 318.681 65.8368 317.383 64.8626C316.329 64.0508 313.41 63.7261 312.842 63.5637C312.275 63.4014 310.734 63.3202 309.68 63.4825Z" fill="#FFBC5A"/>
<path d="M308.869 61.6157C308.869 61.6157 308.95 62.1027 308.95 62.671C308.95 62.9145 309.031 63.1581 309.031 63.4828C309.112 64.2946 309.112 65.1876 309.112 65.6747C309.112 65.6747 310.815 67.3795 312.761 63.6452C312.761 63.6452 311.95 62.1027 312.518 59.9921C313.247 57.8814 308.869 61.6157 308.869 61.6157Z" fill="#FFD1A9"/>
<path d="M304.085 73.6301C304.085 73.6301 303.679 70.8699 304.085 69.2463C304.085 69.2463 304.085 70.7076 304.895 72.7371L304.085 73.6301Z" fill="#183C59"/>
<path d="M314.14 63.8886C314.14 63.8886 312.923 67.3793 309.761 67.1358C306.517 66.8922 308.22 64.2133 308.22 64.2133C308.22 64.2133 309.031 63.7262 309.274 63.7262C309.518 63.645 312.842 63.645 312.842 63.645L314.14 63.8886Z" fill="#FFD1A9"/>
<path d="M308.139 64.1323C308.139 64.1323 306.436 68.8408 306.436 73.6304C306.436 78.42 306.274 86.2133 305.707 88.6487C305.139 91.0841 303.436 98.715 303.436 98.715L302.139 98.0656C302.139 98.0656 305.301 85.8886 305.544 84.9956C305.788 84.1026 305.382 74.8481 305.139 74.1175C304.896 73.3057 303.923 69.8961 304.085 68.922C304.247 67.7043 305.382 65.9183 307.247 64.3759L308.139 64.1323Z" fill="#00A9EA"/>
<path d="M313.491 63.7263C313.491 63.7263 312.437 67.1359 311.869 71.4384C311.302 75.741 313.491 95.8736 314.951 100.42L320.627 99.5267C320.627 99.5267 319.41 85.3202 317.789 82.7225C316.167 80.1247 315.599 77.8517 317.383 72.4938C319.167 67.1359 316.572 64.4569 316.572 64.4569C316.572 64.4569 313.978 63.8075 313.491 63.7263Z" fill="#00A9EA"/>
<path d="M307.409 78.0953L314.221 89.9476L321.843 85.5638L315.275 73.468L307.409 78.0953Z" fill="#616161"/>
<path d="M308.22 78.5014L314.302 89.0548L321.032 85.077L315.194 74.4424L308.22 78.5014Z" fill="#E0CEC7"/>
<path d="M310.409 77.5273L310.004 76.7967L312.761 75.1731L313.329 75.9037L310.409 77.5273Z" fill="#616161"/>
<path d="M310.815 85.9694C310.815 85.9694 311.139 85.9694 311.301 85.8882C311.301 85.8882 311.545 85.7259 311.707 85.6447C311.788 85.6447 311.788 85.5635 311.869 85.5635C312.031 85.4823 312.356 85.4823 312.599 85.2388C312.923 84.9952 313.977 83.7775 313.977 83.7775L313.491 83.0469L313.085 82.2351C313.085 82.2351 310.815 82.3975 310.491 82.5598C310.491 82.5598 310.409 82.5598 310.409 82.641C310.166 82.8034 310.085 83.0469 309.923 83.1281C309.842 83.1281 309.436 83.534 309.517 83.6963C309.517 83.9399 309.68 84.1022 309.761 84.1834C309.761 84.1834 309.842 84.6705 310.085 84.8329C310.085 84.8329 310.085 85.2388 310.491 85.4823C310.409 85.4823 310.491 85.8882 310.815 85.9694Z" fill="#FFD1A9"/>
<path d="M315.437 64.3756C315.437 64.3756 317.545 63.8074 318.681 66.0804C319.897 68.3535 319.897 69.3276 320.059 70.4641C320.221 71.5195 320.87 74.442 320.951 74.6855C321.032 75.0102 322.573 78.501 321.843 79.7999C321.113 81.0176 313.896 84.7518 313.978 84.9954C314.059 85.2389 312.761 82.2353 312.761 82.2353C312.761 82.2353 315.68 80.6117 316.167 80.1246C316.978 79.3128 318.6 78.4198 318.275 77.4456C317.87 76.2279 316.735 72.2501 316.41 71.6818C316.086 71.1136 313.653 65.1874 315.437 64.3756Z" fill="#02A1D1"/>
<path d="M308.626 52.6048C308.626 52.6048 304.896 53.7413 306.923 60.1546C308.95 66.5678 313.978 59.424 313.491 55.5273C312.923 51.6307 308.626 52.6048 308.626 52.6048Z" fill="#FFD1A9"/>
<path d="M306.517 56.3385C306.517 56.3385 308.382 58.1244 311.464 58.368C311.464 58.368 312.68 59.748 312.761 60.3163C312.761 60.3163 315.518 55.6078 312.113 52.8477C308.707 49.9252 305.301 55.1208 306.517 56.3385Z" fill="#0E2D3D"/>
<path d="M311.464 58.4493C311.464 57.9622 311.788 56.9069 312.437 57.2316C313.167 57.5563 312.356 59.667 311.951 59.5858C311.951 59.5858 311.383 59.5858 311.464 58.4493Z" fill="#FFD1A9"/>
<path d="M308.95 62.6711C308.95 62.9146 309.031 63.1582 309.031 63.4829C309.031 63.4829 310.653 63.4017 311.788 60.9663C311.707 61.0475 310.49 62.8335 308.95 62.6711Z" fill="#A77860"/>
<path d="M437.962 162.036L437.152 161.63C437.152 161.63 438.53 158.788 439.828 154.161L440.719 154.405C439.341 159.113 437.962 161.954 437.962 162.036ZM442.26 146.53L441.368 146.449C441.693 144.014 441.855 141.497 441.855 139.143C441.855 138.98 441.855 138.737 441.855 138.574H442.747C442.747 138.737 442.747 138.98 442.747 139.143C442.747 141.497 442.585 144.014 442.26 146.53ZM441.206 130.619C440.719 128.021 440.071 125.423 439.179 122.988L439.99 122.663C440.882 125.18 441.611 127.778 442.017 130.456L441.206 130.619ZM435.854 115.763C434.557 113.49 433.016 111.298 431.394 109.268L432.043 108.7C433.746 110.811 435.286 113.003 436.665 115.357L435.854 115.763ZM425.88 103.505C423.934 101.719 421.907 100.176 419.636 98.6339L420.123 97.9032C422.393 99.3645 424.502 101.069 426.448 102.855L425.88 103.505ZM412.744 94.7372C410.554 93.6819 408.203 92.6265 405.446 91.5712L405.77 90.7594C408.527 91.8147 410.879 92.8701 413.149 94.0066L412.744 94.7372ZM397.985 88.8111C397.093 88.4864 396.201 88.2428 395.391 87.9181C393.769 87.3498 392.147 86.7816 390.444 86.2133L390.769 85.4015C392.39 85.9698 394.093 86.538 395.715 87.1063C396.607 87.431 397.499 87.6745 398.31 87.9993L397.985 88.8111ZM382.903 83.4532C380.227 82.3978 377.875 81.2613 375.605 80.1248L376.01 79.313C378.281 80.4495 380.632 81.5049 383.227 82.5602L382.903 83.4532ZM368.631 76.147C366.361 74.6857 364.171 73.0621 362.144 71.3573L362.712 70.7079C364.739 72.4127 366.847 73.9551 369.118 75.4164L368.631 76.147ZM356.306 65.9183C354.522 64.0511 352.738 62.0216 351.035 59.911L351.765 59.3427C353.467 61.4534 355.17 63.4829 356.954 65.35L356.306 65.9183ZM346.332 53.3354C344.872 51.1435 343.493 48.8705 342.196 46.5162L343.007 46.1103C344.304 48.4646 345.764 50.7376 347.143 52.9295L346.332 53.3354ZM338.385 39.4536C337.087 37.0993 335.628 34.9075 334.087 32.7968L334.817 32.2285C336.439 34.3392 337.898 36.6123 339.196 38.9665L338.385 39.4536ZM208.237 33.2839L207.507 32.7968C208.804 30.9297 210.345 29.1437 212.048 27.3577L212.697 28.0072C210.994 29.6308 209.534 31.4167 208.237 33.2839ZM328.897 26.7895C327.032 24.9223 325.086 23.1364 322.978 21.4316L323.546 20.701C325.654 22.4058 327.681 24.1917 329.546 26.14L328.897 26.7895ZM218.616 22.6493L218.048 21.9187C220.076 20.3762 222.346 18.8338 224.698 17.4538L225.184 18.1844C222.833 19.6456 220.643 21.1069 218.616 22.6493ZM316.491 16.8855C314.301 15.5054 311.95 14.2877 309.517 13.1512L309.923 12.3394C312.355 13.4759 314.788 14.7748 317.058 16.1549L316.491 16.8855ZM232.239 14.6125L231.834 13.8007C234.185 12.6641 236.699 11.69 239.294 10.797L239.618 11.6088C237.023 12.5018 234.591 13.4759 232.239 14.6125ZM302.138 10.2287C299.705 9.41694 297.11 8.68631 294.516 8.03687L294.678 7.14389C297.273 7.71215 299.949 8.52395 302.381 9.33575L302.138 10.2287ZM247.159 9.25457L246.916 8.36159C249.511 7.71215 252.106 7.06271 254.782 6.57563L254.944 7.46861C252.349 7.95569 249.754 8.52395 247.159 9.25457ZM286.65 6.65681C284.055 6.33209 281.379 6.08855 278.703 5.92619L278.784 5.03321C281.46 5.19557 284.136 5.43911 286.812 5.76383L286.65 6.65681ZM262.81 6.33209L262.729 5.43911C265.405 5.19557 268.08 4.95203 270.756 4.87085V5.76383C268.162 5.92619 265.486 6.08855 262.81 6.33209Z" fill="#FFE1B0"/>
<path d="M403.257 238.182C403.257 238.182 414.771 204.411 392.796 193.939C370.821 183.467 352.252 198.566 348.684 206.766C345.197 214.965 346.089 229.821 349.089 240.212C352.09 250.603 351.684 266.433 345.116 271.71C338.629 276.986 330.52 285.754 330.925 303.613C331.169 314.735 374.47 275.282 374.47 275.282L403.257 238.182Z" fill="#252E3B"/>
<path d="M372.442 278.285C372.442 278.285 354.441 282.263 347.224 286.484C340.088 290.706 324.194 309.946 324.194 318.226C324.194 326.506 393.688 334.218 393.688 334.218L406.905 382.358C406.905 382.358 442.017 373.753 446.234 366.69C450.45 359.547 432.854 308.565 429.854 298.256C426.772 287.702 414.203 280.396 399.526 278.285C384.93 276.256 372.442 278.285 372.442 278.285Z" fill="#00315A"/>
<path d="M398.31 278.123C398.31 278.123 397.905 300.042 380.552 300.691C363.199 301.341 366.767 279.665 366.767 279.665C366.767 279.665 379.498 274.551 398.31 278.123Z" fill="#FFD1A9"/>
<path d="M405.69 211.88C405.69 211.88 411.852 247.193 394.337 272.684C376.173 299.148 405.69 211.88 405.69 211.88Z" fill="#252E3B"/>
<path d="M394.581 262.618C394.581 262.618 393.364 273.09 395.391 279.666C397.419 286.16 368.794 286.404 368.794 281.046C368.794 274.957 371.713 269.843 368.956 259.371C366.28 248.898 394.581 262.618 394.581 262.618Z" fill="#FFD1A9"/>
<path d="M372.362 263.998C372.362 263.998 381.363 273.415 392.958 264.972C392.958 264.972 391.985 270.98 383.714 271.791C375.362 272.522 372.362 263.998 372.362 263.998Z" fill="#A77860"/>
<path d="M383.714 199.703C383.714 199.703 406.5 206.441 403.256 238.183C400.013 269.924 385.092 268.219 383.714 268.463C382.335 268.706 364.658 269.843 359.063 231.364C353.387 192.884 383.714 199.703 383.714 199.703Z" fill="#FFD1A9"/>
<path d="M377.795 213.829C377.795 213.829 390.201 233.555 403.257 238.183C403.257 238.183 410.392 205.061 380.957 198.08C351.522 191.098 356.144 231.526 358.333 242.323C358.333 242.323 364.415 226.493 377.795 213.829Z" fill="#252E3B"/>
<path d="M361.171 210.825C361.171 210.825 367.739 198.161 378.686 197.593C389.714 197.024 396.283 206.604 396.283 206.604C396.283 206.604 391.985 195.807 378.686 195.807C365.469 195.888 361.171 210.825 361.171 210.825Z" fill="#FFBC5A"/>
<path d="M404.186 382.445H423.161V375.22H404.186V382.445Z" fill="#006FAD"/>
<path d="M406.014 310.351L413.799 382.439H311.951L304.166 310.351H406.014Z" fill="#00A9EA"/>
<path d="M360.643 354.641C364.153 353.923 366.257 349.709 365.342 345.228C364.427 340.748 360.84 337.699 357.33 338.417C353.82 339.135 351.716 343.35 352.631 347.83C353.546 352.31 357.133 355.36 360.643 354.641Z" fill="#0096C4"/>
</svg>
